<svg width="1440" height="1163" viewBox="0 0 1440 1163" fill="none" xmlns="http://www.w3.org/2000/svg">
<path d="M1219.05 151.066L1245.55 132.566L1428.05 677.861L1069.05 677.861L1219.05 151.066Z" fill="#121010"/>
<path d="M1243.02 136.441C1233.13 112.749 1222.01 105.952 1187.92 110.312C1180.52 90.4804 1172.28 82.1673 1144.47 79.3889C1142.46 79.611 1141.24 79.5399 1141.02 79.0803C1142.2 79.1745 1143.35 79.2772 1144.47 79.3889C1162.09 77.441 1240.25 52.9394 1234.11 70.3807C1227.28 89.8101 1255.44 92.1305 1250.67 70.1064C1245.89 48.0823 1322.43 101.461 1322.43 101.461C1297.84 93.5968 1289.47 95.8845 1281.72 108.758C1269.2 97.7527 1260.22 108.002 1243.02 136.441Z" fill="black"/>
<path d="M1243.02 136.441C1233.13 112.749 1222.01 105.952 1187.92 110.312C1180.22 89.6833 1171.62 81.5176 1141.02 79.0803C1143.17 83.572 1240.95 50.9512 1234.11 70.3807C1227.28 89.8101 1255.44 92.1305 1250.67 70.1064C1245.89 48.0823 1322.43 101.461 1322.43 101.461C1297.84 93.5968 1289.47 95.8845 1281.72 108.758C1269.2 97.7527 1260.22 108.002 1243.02 136.441Z" stroke="black" stroke-linecap="round"/>
<rect x="593" y="809.906" width="20" height="85" fill="black"/>
<path d="M603.5 738.906L617 800.906L627.5 807.906L617 809.906H589L579 807.906L589 800.906L603.5 738.906Z" fill="black"/>
<rect x="807" y="690.906" width="20" height="85" fill="black"/>
<path d="M817.5 619.906L831 681.906L841.5 688.906L831 690.906H803L793 688.906L803 681.906L817.5 619.906Z" fill="black"/>
<rect x="528" y="809.906" width="20" height="85" fill="black"/>
<path d="M538.5 738.906L552 800.906L562.5 807.906L552 809.906H524L514 807.906L524 800.906L538.5 738.906Z" fill="black"/>
<path d="M543 830.906C558.741 853.364 583.776 853.781 598 830.906" stroke="black" stroke-width="10"/>
<path d="M478 830.906C493.741 853.364 518.776 853.781 533 830.906" stroke="black" stroke-width="10"/>
<rect x="463" y="809.906" width="20" height="85" fill="black"/>
<path d="M473.5 738.906L487 800.906L497.5 807.906L487 809.906H459L449 807.906L459 800.906L473.5 738.906Z" fill="black"/>
<rect x="398" y="809.906" width="20" height="85" fill="black"/>
<path d="M408.5 738.906L422 800.906L432.5 807.906L422 809.906H394L384 807.906L394 800.906L408.5 738.906Z" fill="black"/>
<path d="M413 830.906C428.741 853.364 453.776 853.781 468 830.906" stroke="black" stroke-width="10"/>
<rect x="338" y="811.906" width="20" height="85" fill="black"/>
<path d="M348.5 740.906L362 802.906L372.5 809.906L362 811.906H334L324 809.906L334 802.906L348.5 740.906Z" fill="black"/>
<path d="M353 832.906C368.741 855.364 393.776 855.781 408 832.906" stroke="black" stroke-width="10"/>
<rect x="982" y="687.906" width="20" height="85" fill="black"/>
<path d="M992.5 616.906L1006 678.906L1016.5 685.906L1006 687.906H978L968 685.906L978 678.906L992.5 616.906Z" fill="black"/>
<rect x="922" y="687.906" width="20" height="85" fill="black"/>
<path d="M932.5 616.906L946 678.906L956.5 685.906L946 687.906H918L908 685.906L918 678.906L932.5 616.906Z" fill="black"/>
<path d="M937 708.906C952.741 731.364 977.776 731.781 992 708.906" stroke="black" stroke-width="10"/>
<rect x="862" y="689.906" width="20" height="85" fill="black"/>
<path d="M872.5 618.906L886 680.906L896.5 687.906L886 689.906H858L848 687.906L858 680.906L872.5 618.906Z" fill="black"/>
<path d="M877 710.906C892.741 733.364 917.776 733.781 932 710.906" stroke="black" stroke-width="10"/>
<path d="M817 708.906C832.741 731.364 857.776 731.781 872 708.906" stroke="black" stroke-width="10"/>
<path d="M265 919.906H65V766.906H265V919.906Z" fill="#121010"/>
<path d="M256.249 530.311L306.523 791.331L29.625 764.42L130.965 522.949L222.219 272.492L256.249 530.311ZM247.494 703.952C246.798 703.976 245.886 704.012 244.759 704.06C243.655 704.108 242.478 704.156 241.23 704.204C239.982 704.228 238.794 704.251 237.666 704.275C236.538 704.299 235.614 704.312 234.895 704.312C234.175 704.312 233.25 704.299 232.122 704.275C230.994 704.251 229.818 704.216 228.595 704.168C227.347 704.12 226.183 704.084 225.103 704.06C223.999 704.012 223.098 703.976 222.402 703.952C221.706 703.928 221.358 703.916 221.358 703.916L221.057 708.906L220.963 708.926L221.009 709.696L220.963 710.468L221.057 710.486L221.358 715.478C221.358 715.478 221.706 715.465 222.402 715.441C223.098 715.417 223.999 715.381 225.103 715.333C226.183 715.309 227.347 715.274 228.595 715.226C229.818 715.178 230.994 715.141 232.122 715.117C233.25 715.093 234.175 715.081 234.895 715.081C235.614 715.081 236.538 715.093 237.666 715.117C238.794 715.141 239.982 715.165 241.23 715.189C242.478 715.237 243.655 715.285 244.759 715.333C245.886 715.381 246.798 715.417 247.494 715.441C248.178 715.465 248.526 715.477 248.538 715.478L248.829 710.609L248.935 710.54L248.884 709.696L248.935 708.854L248.829 708.783L248.538 703.916C248.526 703.916 248.177 703.929 247.494 703.952ZM247.439 709.696L246.738 713.029H223.158L222.468 709.696L223.158 706.363H246.738L247.439 709.696ZM268.882 682.523C268.109 682.55 267.095 682.59 265.842 682.644C264.615 682.697 263.308 682.749 261.922 682.803C260.535 682.829 259.215 682.856 257.962 682.883C256.709 682.909 255.682 682.923 254.882 682.923C254.082 682.923 253.055 682.909 251.802 682.883C250.549 682.856 249.242 682.816 247.882 682.763C246.495 682.709 245.202 682.67 244.002 682.644C242.775 682.59 241.775 682.55 241.002 682.523C240.229 682.497 239.842 682.483 239.842 682.483L239.48 688.452L239.402 688.469L239.44 689.115L239.402 689.763L239.48 689.778L239.842 695.749C239.842 695.749 240.229 695.736 241.002 695.709C241.775 695.682 242.775 695.642 244.002 695.589C245.202 695.562 246.495 695.522 247.882 695.469C249.242 695.415 250.549 695.375 251.802 695.349C253.055 695.322 254.082 695.309 254.882 695.309C255.682 695.309 256.709 695.322 257.962 695.349C259.215 695.375 260.535 695.402 261.922 695.429C263.308 695.482 264.615 695.536 265.842 695.589C267.095 695.642 268.109 695.682 268.882 695.709C269.648 695.735 270.035 695.749 270.042 695.749L270.392 689.902L270.482 689.843L270.438 689.115L270.482 688.389L270.392 688.328L270.042 682.483C270.035 682.484 269.648 682.497 268.882 682.523ZM268.865 689.115L268.042 693.029H241.842L241.032 689.115L241.842 685.203H268.042L268.865 689.115ZM163.494 675.371C162.798 675.395 161.886 675.431 160.758 675.479C159.654 675.527 158.478 675.575 157.23 675.623C155.982 675.647 154.794 675.671 153.666 675.695C152.538 675.719 151.614 675.731 150.895 675.731C150.175 675.731 149.25 675.719 148.122 675.695C146.994 675.671 145.818 675.635 144.594 675.587C143.346 675.539 142.182 675.503 141.103 675.479C139.999 675.431 139.098 675.395 138.402 675.371C137.718 675.348 137.37 675.335 137.358 675.335L137.009 681.109L136.962 681.119L136.984 681.503L136.962 681.887L137.009 681.896L137.358 687.671C137.373 687.67 137.721 687.658 138.402 687.635C139.098 687.611 139.998 687.575 141.102 687.527C142.182 687.503 143.346 687.467 144.594 687.419C145.818 687.371 146.994 687.335 148.122 687.311C149.25 687.287 150.174 687.275 150.894 687.275C151.614 687.275 152.538 687.287 153.666 687.311C154.794 687.335 155.982 687.359 157.229 687.383C158.477 687.431 159.654 687.479 160.758 687.527C161.886 687.575 162.798 687.611 163.494 687.635C164.19 687.659 164.538 687.671 164.538 687.671L164.876 681.997L164.935 681.959L164.906 681.495L164.934 681.047L164.877 681.009L164.538 675.335C164.538 675.335 164.19 675.347 163.494 675.371ZM163.521 681.5L162.738 685.223H139.158L138.388 681.503L139.158 677.783H162.738L163.521 681.5ZM143.494 657.371C142.798 657.395 141.886 657.431 140.758 657.479C139.654 657.527 138.478 657.575 137.23 657.623C135.982 657.647 134.794 657.671 133.666 657.695C132.538 657.719 131.614 657.731 130.895 657.731C130.175 657.731 129.25 657.719 128.122 657.695C126.994 657.671 125.818 657.635 124.594 657.587C123.346 657.539 122.182 657.503 121.103 657.479C119.999 657.431 119.098 657.395 118.402 657.371C117.718 657.348 117.37 657.335 117.358 657.335L117.009 663.109L116.962 663.119L116.984 663.503L116.962 663.887L117.009 663.896L117.358 669.671C117.373 669.67 117.721 669.658 118.402 669.635C119.098 669.611 119.998 669.575 121.102 669.527C122.182 669.503 123.346 669.467 124.594 669.419C125.818 669.371 126.994 669.335 128.122 669.311C129.25 669.287 130.174 669.275 130.894 669.275C131.614 669.275 132.538 669.287 133.666 669.311C134.794 669.335 135.982 669.359 137.229 669.383C138.477 669.431 139.654 669.479 140.758 669.527C141.886 669.575 142.798 669.611 143.494 669.635C144.19 669.659 144.538 669.671 144.538 669.671L144.876 663.997L144.935 663.959L144.906 663.495L144.934 663.047L144.877 663.009L144.538 657.335C144.538 657.335 144.19 657.347 143.494 657.371ZM143.521 663.5L142.738 667.223H119.158L118.388 663.503L119.158 659.783H142.738L143.521 663.5ZM189.494 573.371C188.798 573.395 187.886 573.431 186.758 573.479C185.654 573.527 184.477 573.575 183.229 573.623C181.982 573.647 180.794 573.671 179.666 573.695C178.538 573.719 177.614 573.731 176.894 573.731C176.174 573.731 175.25 573.719 174.122 573.695C172.994 573.671 171.818 573.635 170.594 573.587C169.346 573.539 168.182 573.503 167.102 573.479C165.998 573.432 165.098 573.395 164.402 573.371C163.721 573.348 163.372 573.335 163.358 573.335L163.056 578.325L162.962 578.345L163.008 579.115L162.962 579.887L163.056 579.905L163.358 584.896C163.373 584.896 163.721 584.884 164.402 584.86C165.098 584.836 165.998 584.801 167.102 584.753C168.182 584.729 169.346 584.693 170.594 584.645C171.818 584.597 172.994 584.561 174.122 584.537C175.25 584.513 176.174 584.501 176.894 584.501C177.614 584.501 178.538 584.513 179.666 584.537C180.794 584.561 181.982 584.584 183.229 584.608C184.477 584.656 185.654 584.705 186.758 584.753C187.886 584.801 188.798 584.836 189.494 584.86C190.19 584.884 190.538 584.896 190.538 584.896L190.828 580.028L190.934 579.959L190.883 579.115L190.934 578.272L190.828 578.202L190.538 573.335C190.538 573.335 190.19 573.347 189.494 573.371ZM189.438 579.115L188.738 582.449H165.158L164.468 579.115L165.158 575.783H188.738L189.438 579.115ZM217.494 554.758C216.798 554.782 215.886 554.818 214.758 554.866C213.654 554.914 212.477 554.962 211.229 555.01C209.982 555.034 208.794 555.058 207.666 555.082C206.538 555.106 205.614 555.118 204.894 555.118C204.174 555.118 203.25 555.106 202.122 555.082C200.994 555.058 199.818 555.023 198.594 554.975C197.346 554.927 196.182 554.89 195.102 554.866C193.998 554.818 193.098 554.782 192.402 554.758C191.72 554.734 191.372 554.722 191.358 554.722L191.121 558.635L190.962 558.667L191.04 559.971L190.962 561.274L191.121 561.306L191.358 565.22C191.372 565.219 191.721 565.207 192.402 565.184C193.098 565.16 193.998 565.123 195.102 565.075C196.182 565.051 197.346 565.016 198.594 564.968C199.818 564.92 200.994 564.883 202.122 564.859C203.25 564.835 204.174 564.823 204.894 564.823C205.614 564.823 206.538 564.835 207.666 564.859C208.794 564.883 209.982 564.908 211.229 564.932C212.477 564.98 213.654 565.027 214.758 565.075C215.886 565.123 216.798 565.16 217.494 565.184C218.19 565.208 218.538 565.22 218.538 565.22L218.762 561.46L218.934 561.346L218.851 559.971L218.934 558.596L218.762 558.48L218.538 554.722C218.538 554.722 218.19 554.734 217.494 554.758ZM217.327 559.971L216.738 562.771H193.158L192.578 559.971L193.158 557.17H216.738L217.327 559.971ZM232.088 538.629C231.392 538.653 230.48 538.689 229.352 538.737C228.248 538.785 227.071 538.833 225.823 538.881C224.575 538.905 223.388 538.929 222.26 538.953C221.132 538.977 220.207 538.989 219.487 538.989C218.767 538.989 217.844 538.977 216.716 538.953C215.588 538.929 214.412 538.894 213.188 538.846C211.94 538.798 210.775 538.761 209.695 538.737C208.592 538.689 207.692 538.653 206.996 538.629C206.314 538.605 205.966 538.593 205.952 538.593L205.715 542.506L205.556 542.538L205.634 543.842L205.556 545.146L205.715 545.177L205.952 549.091C205.966 549.09 206.314 549.078 206.996 549.055C207.692 549.031 208.592 548.994 209.695 548.946C210.775 548.922 211.94 548.887 213.188 548.839C214.412 548.791 215.588 548.754 216.716 548.73C217.844 548.706 218.767 548.694 219.487 548.694C220.207 548.694 221.132 548.706 222.26 548.73C223.388 548.754 224.575 548.779 225.823 548.803C227.071 548.851 228.248 548.898 229.352 548.946C230.48 548.994 231.392 549.031 232.088 549.055C232.784 549.079 233.132 549.091 233.132 549.091L233.355 545.331L233.527 545.217L233.444 543.842L233.527 542.467L233.355 542.352L233.132 538.593C233.132 538.593 232.784 538.605 232.088 538.629ZM231.921 543.842L231.332 546.643H207.752L207.172 543.842L207.752 541.041H231.332L231.921 543.842Z" fill="#121010"/>
<path d="M1380.82 781.973H1114.82V672.973H1380.82V781.973ZM1288.49 744.274C1287.79 744.298 1286.88 744.334 1285.75 744.382C1284.65 744.43 1283.47 744.478 1282.23 744.526C1280.98 744.55 1279.79 744.575 1278.66 744.599C1277.53 744.623 1276.61 744.634 1275.89 744.634C1275.17 744.634 1274.25 744.623 1273.12 744.599C1271.99 744.575 1270.81 744.538 1269.59 744.49C1268.34 744.442 1267.18 744.406 1266.1 744.382C1264.99 744.334 1264.09 744.298 1263.4 744.274C1262.72 744.251 1262.37 744.239 1262.35 744.238L1261.96 750.79L1262.54 750.906L1261.96 751.022L1262.35 757.574C1262.37 757.574 1262.72 757.562 1263.4 757.538C1264.09 757.514 1264.99 757.479 1266.1 757.431C1267.18 757.407 1268.34 757.37 1269.59 757.322C1270.81 757.274 1271.99 757.238 1273.12 757.214C1274.25 757.19 1275.17 757.179 1275.89 757.179C1276.61 757.179 1277.53 757.19 1278.66 757.214C1279.79 757.238 1280.98 757.262 1282.23 757.286C1283.47 757.334 1284.65 757.383 1285.75 757.431C1286.88 757.479 1287.79 757.514 1288.49 757.538C1289.19 757.562 1289.53 757.574 1289.53 757.574L1289.93 750.95L1289.86 750.906L1289.93 750.862L1289.53 744.238C1289.53 744.238 1289.19 744.25 1288.49 744.274ZM1288.6 750.79L1289.2 750.906L1288.6 751.022L1287.73 755.126H1264.15L1263.29 750.95L1263.21 750.906L1263.29 750.862L1264.15 746.687H1287.73L1288.6 750.79ZM1159.49 727.274C1158.79 727.298 1157.88 727.334 1156.75 727.382C1155.65 727.43 1154.47 727.478 1153.23 727.526C1151.98 727.55 1150.79 727.575 1149.66 727.599C1148.53 727.623 1147.61 727.634 1146.89 727.634C1146.17 727.634 1145.25 727.623 1144.12 727.599C1142.99 727.575 1141.81 727.538 1140.59 727.49C1139.34 727.442 1138.18 727.406 1137.1 727.382C1135.99 727.334 1135.09 727.298 1134.4 727.274C1133.72 727.251 1133.37 727.239 1133.35 727.238L1133 733.013L1132.96 733.022L1132.98 733.406L1132.96 733.79L1133 733.799L1133.35 739.574C1133.37 739.574 1133.72 739.562 1134.4 739.538C1135.09 739.514 1135.99 739.479 1137.1 739.431C1138.18 739.407 1139.34 739.37 1140.59 739.322C1141.81 739.274 1142.99 739.238 1144.12 739.214C1145.25 739.19 1146.17 739.179 1146.89 739.179C1147.61 739.179 1148.53 739.19 1149.66 739.214C1150.79 739.238 1151.98 739.262 1153.23 739.286C1154.47 739.334 1155.65 739.383 1156.75 739.431C1157.88 739.479 1158.79 739.514 1159.49 739.538C1160.19 739.562 1160.53 739.574 1160.53 739.574L1160.87 733.899L1160.93 733.862L1160.9 733.406L1160.93 732.95L1160.87 732.912L1160.53 727.238C1160.53 727.238 1160.19 727.25 1159.49 727.274ZM1349.42 723.914C1348.72 723.938 1347.81 723.974 1346.68 724.022C1345.58 724.07 1344.4 724.118 1343.15 724.166C1341.91 724.19 1340.72 724.214 1339.59 724.238C1338.46 724.262 1337.54 724.274 1336.82 724.274C1336.1 724.274 1335.17 724.262 1334.05 724.238C1332.92 724.214 1331.74 724.178 1330.52 724.13C1329.27 724.082 1328.11 724.046 1327.03 724.022C1325.92 723.974 1325.02 723.938 1324.33 723.914C1323.64 723.89 1323.29 723.878 1323.28 723.878L1322.89 730.877L1322.89 730.878L1322.89 730.906L1322.89 730.935H1322.89L1323.28 737.935C1323.29 737.934 1323.64 737.922 1324.33 737.898C1325.02 737.874 1325.92 737.838 1327.03 737.79C1328.11 737.766 1329.27 737.731 1330.52 737.683C1331.74 737.635 1332.92 737.598 1334.05 737.574C1335.17 737.55 1336.1 737.538 1336.82 737.538C1337.54 737.538 1338.46 737.55 1339.59 737.574C1340.72 737.598 1341.91 737.622 1343.15 737.646C1344.4 737.694 1345.58 737.742 1346.68 737.79C1347.81 737.838 1348.72 737.874 1349.42 737.898C1350.11 737.922 1350.45 737.934 1350.46 737.935L1350.84 731.051L1350.86 731.042L1350.85 730.906L1350.86 730.771L1350.84 730.761L1350.46 723.878C1350.45 723.878 1350.11 723.89 1349.42 723.914ZM1159.52 733.406L1158.73 737.126H1135.15L1134.38 733.406L1135.15 729.687H1158.73L1159.52 733.406ZM1349.09 730.906L1348.3 734.803H1325.44L1324.68 730.906L1325.44 727.01H1348.3L1349.09 730.906ZM1263.49 721.274C1262.79 721.298 1261.88 721.334 1260.75 721.382C1259.65 721.43 1258.47 721.478 1257.23 721.526C1255.98 721.55 1254.79 721.575 1253.66 721.599C1252.53 721.623 1251.61 721.634 1250.89 721.634C1250.17 721.634 1249.25 721.623 1248.12 721.599C1246.99 721.575 1245.81 721.538 1244.59 721.49C1243.34 721.442 1242.18 721.406 1241.1 721.382C1239.99 721.334 1239.09 721.298 1238.4 721.274C1237.72 721.251 1237.37 721.239 1237.35 721.238L1236.96 727.79L1237.54 727.906L1236.96 728.022L1237.35 734.574C1237.37 734.574 1237.72 734.562 1238.4 734.538C1239.09 734.514 1239.99 734.479 1241.1 734.431C1242.18 734.407 1243.34 734.37 1244.59 734.322C1245.81 734.274 1246.99 734.238 1248.12 734.214C1249.25 734.19 1250.17 734.179 1250.89 734.179C1251.61 734.179 1252.53 734.19 1253.66 734.214C1254.79 734.238 1255.98 734.262 1257.23 734.286C1258.47 734.334 1259.65 734.383 1260.75 734.431C1261.88 734.479 1262.79 734.514 1263.49 734.538C1264.19 734.562 1264.53 734.574 1264.53 734.574L1264.93 727.95L1264.86 727.906L1264.93 727.862L1264.53 721.238C1264.53 721.238 1264.19 721.25 1263.49 721.274ZM1263.6 727.79L1264.2 727.906L1263.6 728.022L1262.73 732.126H1239.15L1238.29 727.95L1238.21 727.906L1238.29 727.862L1239.15 723.687H1262.73L1263.6 727.79ZM1169.49 713.274C1168.79 713.298 1167.88 713.334 1166.75 713.382C1165.65 713.43 1164.47 713.478 1163.23 713.526C1161.98 713.55 1160.79 713.575 1159.66 713.599C1158.53 713.623 1157.61 713.634 1156.89 713.634C1156.17 713.634 1155.25 713.623 1154.12 713.599C1152.99 713.575 1151.81 713.538 1150.59 713.49C1149.34 713.442 1148.18 713.406 1147.1 713.382C1145.99 713.334 1145.09 713.298 1144.4 713.274C1143.72 713.251 1143.37 713.239 1143.35 713.238L1143.07 718L1142.96 718.022L1143.01 718.906L1142.96 719.79L1143.07 719.812L1143.35 724.574C1143.37 724.574 1143.72 724.562 1144.4 724.538C1145.09 724.514 1145.99 724.479 1147.1 724.431C1148.18 724.407 1149.34 724.37 1150.59 724.322C1151.81 724.274 1152.99 724.238 1154.12 724.214C1155.25 724.19 1156.17 724.179 1156.89 724.179C1157.61 724.179 1158.53 724.19 1159.66 724.214C1160.79 724.238 1161.98 724.262 1163.23 724.286C1164.47 724.334 1165.65 724.383 1166.75 724.431C1167.88 724.479 1168.79 724.514 1169.49 724.538C1170.19 724.562 1170.53 724.574 1170.53 724.574L1170.81 719.94L1170.93 719.862L1170.87 718.906L1170.93 717.95L1170.81 717.871L1170.53 713.238C1170.53 713.238 1170.19 713.25 1169.49 713.274ZM1169.41 718.906L1168.73 722.126H1145.15L1144.49 718.906L1145.15 715.687H1168.73L1169.41 718.906ZM1369.49 708.274C1368.79 708.298 1367.88 708.334 1366.75 708.382C1365.65 708.43 1364.47 708.478 1363.23 708.526C1361.98 708.55 1360.79 708.575 1359.66 708.599C1358.53 708.623 1357.61 708.634 1356.89 708.634C1356.17 708.634 1355.25 708.623 1354.12 708.599C1352.99 708.575 1351.81 708.538 1350.59 708.49C1349.34 708.442 1348.18 708.406 1347.1 708.382C1345.99 708.334 1345.09 708.298 1344.4 708.274C1343.72 708.251 1343.37 708.239 1343.35 708.238L1343 714.013L1342.96 714.022L1342.98 714.406L1342.96 714.79L1343 714.799L1343.35 720.574C1343.37 720.574 1343.72 720.562 1344.4 720.538C1345.09 720.514 1345.99 720.479 1347.1 720.431C1348.18 720.407 1349.34 720.37 1350.59 720.322C1351.81 720.274 1352.99 720.238 1354.12 720.214C1355.25 720.19 1356.17 720.179 1356.89 720.179C1357.61 720.179 1358.53 720.19 1359.66 720.214C1360.79 720.238 1361.98 720.262 1363.23 720.286C1364.47 720.334 1365.65 720.383 1366.75 720.431C1367.88 720.479 1368.79 720.514 1369.49 720.538C1370.19 720.562 1370.53 720.574 1370.53 720.574L1370.87 714.899L1370.93 714.862L1370.9 714.406L1370.93 713.95L1370.87 713.912L1370.53 708.238C1370.53 708.238 1370.19 708.25 1369.49 708.274ZM1369.52 714.406L1368.73 718.126H1345.15L1344.38 714.406L1345.15 710.687H1368.73L1369.52 714.406ZM1149.49 699.274C1148.79 699.298 1147.88 699.334 1146.75 699.382C1145.65 699.43 1144.47 699.478 1143.23 699.526C1141.98 699.55 1140.79 699.575 1139.66 699.599C1138.53 699.623 1137.61 699.634 1136.89 699.634C1136.17 699.634 1135.25 699.623 1134.12 699.599C1132.99 699.575 1131.81 699.538 1130.59 699.49C1129.34 699.442 1128.18 699.406 1127.1 699.382C1125.99 699.334 1125.09 699.298 1124.4 699.274C1123.72 699.251 1123.37 699.239 1123.35 699.238L1123 705.013L1122.96 705.022L1122.98 705.406L1122.96 705.79L1123 705.799L1123.35 711.574C1123.37 711.574 1123.72 711.562 1124.4 711.538C1125.09 711.514 1125.99 711.479 1127.1 711.431C1128.18 711.407 1129.34 711.37 1130.59 711.322C1131.81 711.274 1132.99 711.238 1134.12 711.214C1135.25 711.19 1136.17 711.179 1136.89 711.179C1137.61 711.179 1138.53 711.19 1139.66 711.214C1140.79 711.238 1141.98 711.262 1143.23 711.286C1144.47 711.334 1145.65 711.383 1146.75 711.431C1147.88 711.479 1148.79 711.514 1149.49 711.538C1150.19 711.562 1150.53 711.574 1150.53 711.574L1150.87 705.899L1150.93 705.862L1150.9 705.406L1150.93 704.95L1150.87 704.912L1150.53 699.238C1150.53 699.238 1150.19 699.25 1149.49 699.274ZM1149.52 705.406L1148.73 709.126H1125.15L1124.38 705.406L1125.15 701.687H1148.73L1149.52 705.406Z" fill="#121010"/>
<path d="M1444 1162.91H0V887.906H680.385V840.906L751.081 772.906H1444V1162.91ZM1058.6 1094.27C1057.9 1094.3 1057 1094.33 1055.9 1094.38C1054.82 1094.41 1053.66 1094.44 1052.41 1094.49C1051.18 1094.54 1050.01 1094.57 1048.88 1094.6C1047.75 1094.62 1046.83 1094.63 1046.11 1094.63C1045.39 1094.63 1044.46 1094.62 1043.34 1094.6C1042.21 1094.57 1041.02 1094.55 1039.77 1094.53C1038.52 1094.48 1037.35 1094.43 1036.24 1094.38C1035.12 1094.33 1034.2 1094.3 1033.51 1094.27C1032.81 1094.25 1032.46 1094.24 1032.46 1094.24L1032.07 1100.86L1032.13 1100.91L1032.07 1100.95L1032.46 1107.57C1032.46 1107.57 1032.81 1107.56 1033.51 1107.54C1034.2 1107.51 1035.12 1107.48 1036.24 1107.43C1037.35 1107.38 1038.52 1107.33 1039.77 1107.29C1041.02 1107.26 1042.21 1107.24 1043.34 1107.21C1044.46 1107.19 1045.39 1107.18 1046.11 1107.18C1046.83 1107.18 1047.75 1107.19 1048.88 1107.21C1050.01 1107.24 1051.18 1107.27 1052.41 1107.32C1053.66 1107.37 1054.82 1107.41 1055.9 1107.43C1057 1107.48 1057.9 1107.51 1058.6 1107.54C1059.28 1107.56 1059.63 1107.57 1059.64 1107.57L1060.04 1101.02L1059.46 1100.91L1060.04 1100.79L1059.64 1094.24C1059.63 1094.24 1059.28 1094.25 1058.6 1094.27ZM1142.6 1094.27C1141.9 1094.3 1141 1094.33 1139.9 1094.38C1138.82 1094.41 1137.66 1094.44 1136.41 1094.49C1135.18 1094.54 1134.01 1094.57 1132.88 1094.6C1131.75 1094.62 1130.83 1094.63 1130.11 1094.63C1129.39 1094.63 1128.46 1094.62 1127.34 1094.6C1126.21 1094.57 1125.02 1094.55 1123.77 1094.53C1122.52 1094.48 1121.35 1094.43 1120.24 1094.38C1119.12 1094.33 1118.2 1094.3 1117.51 1094.27C1116.81 1094.25 1116.46 1094.24 1116.46 1094.24L1116.07 1100.86L1116.13 1100.91L1116.07 1100.95L1116.46 1107.57C1116.46 1107.57 1116.81 1107.56 1117.51 1107.54C1118.2 1107.51 1119.12 1107.48 1120.24 1107.43C1121.35 1107.38 1122.52 1107.33 1123.77 1107.29C1125.02 1107.26 1126.21 1107.24 1127.34 1107.21C1128.46 1107.19 1129.39 1107.18 1130.11 1107.18C1130.83 1107.18 1131.75 1107.19 1132.88 1107.21C1134.01 1107.24 1135.18 1107.27 1136.41 1107.32C1137.66 1107.37 1138.82 1107.41 1139.9 1107.43C1141 1107.48 1141.9 1107.51 1142.6 1107.54C1143.28 1107.56 1143.63 1107.57 1143.64 1107.57L1144.04 1101.02L1143.46 1100.91L1144.04 1100.79L1143.64 1094.24C1143.63 1094.24 1143.28 1094.25 1142.6 1094.27ZM1058.71 1100.86L1058.78 1100.91L1058.71 1100.95L1057.84 1105.13H1034.26L1033.4 1101.02L1032.8 1100.91L1033.4 1100.79L1034.26 1096.69H1057.84L1058.71 1100.86ZM1142.71 1100.86L1142.78 1100.91L1142.71 1100.95L1141.84 1105.13H1118.26L1117.4 1101.02L1116.8 1100.91L1117.4 1100.79L1118.26 1096.69H1141.84L1142.71 1100.86ZM1387.49 1087.27C1386.8 1087.3 1385.88 1087.33 1384.76 1087.38C1383.65 1087.43 1382.48 1087.48 1381.23 1087.53C1379.98 1087.55 1378.79 1087.57 1377.66 1087.6C1376.54 1087.62 1375.61 1087.63 1374.89 1087.63C1374.17 1087.63 1373.25 1087.62 1372.12 1087.6C1370.99 1087.57 1369.82 1087.54 1368.59 1087.49C1367.34 1087.44 1366.18 1087.41 1365.1 1087.38C1364 1087.33 1363.1 1087.3 1362.4 1087.27C1361.72 1087.25 1361.37 1087.24 1361.36 1087.24L1360.96 1093.79L1361.54 1093.91L1360.96 1094.02L1361.36 1100.57C1361.37 1100.57 1361.72 1100.56 1362.4 1100.54C1363.1 1100.51 1364 1100.48 1365.1 1100.43C1366.18 1100.41 1367.34 1100.37 1368.59 1100.32C1369.82 1100.27 1370.99 1100.24 1372.12 1100.21C1373.25 1100.19 1374.17 1100.18 1374.89 1100.18C1375.61 1100.18 1376.54 1100.19 1377.66 1100.21C1378.79 1100.24 1379.98 1100.26 1381.23 1100.29C1382.48 1100.33 1383.65 1100.38 1384.76 1100.43C1385.88 1100.48 1386.8 1100.51 1387.49 1100.54C1388.19 1100.56 1388.54 1100.57 1388.54 1100.57L1388.93 1093.95L1388.87 1093.91L1388.93 1093.86L1388.54 1087.24C1388.54 1087.24 1388.19 1087.25 1387.49 1087.27ZM1387.6 1093.79L1388.2 1093.91L1387.6 1094.02L1386.74 1098.13H1363.16L1362.29 1093.95L1362.21 1093.91L1362.29 1093.86L1363.16 1089.69H1386.74L1387.6 1093.79ZM1117.6 1074.37C1116.9 1074.39 1116 1074.43 1114.9 1074.48C1113.82 1074.5 1112.66 1074.54 1111.41 1074.58C1110.18 1074.63 1109.01 1074.67 1107.88 1074.69C1106.75 1074.72 1105.83 1074.73 1105.11 1074.73C1104.39 1074.73 1103.46 1074.72 1102.34 1074.69C1101.21 1074.67 1100.02 1074.64 1098.77 1074.62C1097.52 1074.57 1096.35 1074.52 1095.24 1074.48C1094.12 1074.43 1093.2 1074.39 1092.51 1074.37C1091.81 1074.34 1091.46 1074.33 1091.46 1074.33L1091.07 1080.96L1091.13 1081L1091.07 1081.04L1091.46 1087.67C1091.46 1087.67 1091.81 1087.66 1092.51 1087.63C1093.2 1087.61 1094.12 1087.57 1095.24 1087.52C1096.35 1087.48 1097.52 1087.43 1098.77 1087.38C1100.02 1087.36 1101.21 1087.33 1102.34 1087.31C1103.46 1087.28 1104.39 1087.27 1105.11 1087.27C1105.83 1087.27 1106.75 1087.28 1107.88 1087.31C1109.01 1087.33 1110.18 1087.37 1111.41 1087.42C1112.66 1087.46 1113.82 1087.5 1114.9 1087.52C1116 1087.57 1116.9 1087.61 1117.6 1087.63C1118.28 1087.66 1118.63 1087.67 1118.64 1087.67L1119.04 1081.12L1118.46 1081L1119.04 1080.88L1118.64 1074.33C1118.63 1074.33 1118.28 1074.34 1117.6 1074.37ZM1117.71 1080.96L1117.78 1081L1117.71 1081.04L1116.84 1085.22H1093.26L1092.4 1081.12L1091.8 1081L1092.4 1080.88L1093.26 1076.78H1116.84L1117.71 1080.96ZM978.6 1071.37C977.904 1071.39 977.004 1071.43 975.9 1071.48C974.82 1071.5 973.656 1071.54 972.408 1071.58C971.184 1071.63 970.008 1071.67 968.88 1071.69C967.752 1071.72 966.828 1071.73 966.108 1071.73C965.388 1071.73 964.464 1071.72 963.336 1071.69C962.208 1071.67 961.02 1071.64 959.772 1071.62C958.525 1071.57 957.348 1071.52 956.244 1071.48C955.116 1071.43 954.204 1071.39 953.508 1071.37C952.812 1071.34 952.464 1071.33 952.464 1071.33L952.068 1077.96L952.134 1078L952.068 1078.04L952.464 1084.67C952.464 1084.67 952.812 1084.66 953.508 1084.63C954.204 1084.61 955.116 1084.57 956.244 1084.52C957.348 1084.48 958.525 1084.43 959.772 1084.38C961.02 1084.36 962.208 1084.33 963.336 1084.31C964.464 1084.28 965.388 1084.27 966.108 1084.27C966.828 1084.27 967.752 1084.28 968.88 1084.31C970.008 1084.33 971.184 1084.37 972.408 1084.42C973.656 1084.46 974.82 1084.5 975.9 1084.52C977.004 1084.57 977.904 1084.61 978.6 1084.63C979.281 1084.66 979.629 1084.67 979.644 1084.67L980.04 1078.12L979.458 1078L980.04 1077.88L979.644 1071.33C979.629 1071.33 979.281 1071.34 978.6 1071.37ZM1414.49 1069.37C1413.8 1069.39 1412.88 1069.43 1411.76 1069.48C1410.65 1069.52 1409.48 1069.57 1408.23 1069.62C1406.98 1069.64 1405.79 1069.67 1404.66 1069.69C1403.54 1069.72 1402.61 1069.73 1401.89 1069.73C1401.17 1069.73 1400.25 1069.72 1399.12 1069.69C1397.99 1069.67 1396.82 1069.63 1395.59 1069.58C1394.34 1069.54 1393.18 1069.5 1392.1 1069.48C1391 1069.43 1390.1 1069.39 1389.4 1069.37C1388.72 1069.34 1388.37 1069.33 1388.36 1069.33L1387.96 1075.88L1388.54 1076L1387.96 1076.12L1388.36 1082.67C1388.37 1082.67 1388.72 1082.66 1389.4 1082.63C1390.1 1082.61 1391 1082.57 1392.1 1082.52C1393.18 1082.5 1394.34 1082.46 1395.59 1082.42C1396.82 1082.37 1397.99 1082.33 1399.12 1082.31C1400.25 1082.28 1401.17 1082.27 1401.89 1082.27C1402.61 1082.27 1403.54 1082.28 1404.66 1082.31C1405.79 1082.33 1406.98 1082.36 1408.23 1082.38C1409.48 1082.43 1410.65 1082.48 1411.76 1082.52C1412.88 1082.57 1413.8 1082.61 1414.49 1082.63C1415.19 1082.66 1415.54 1082.67 1415.54 1082.67L1415.93 1076.04L1415.87 1076L1415.93 1075.96L1415.54 1069.33C1415.54 1069.33 1415.19 1069.34 1414.49 1069.37ZM978.708 1077.96L978.784 1078L978.708 1078.04L977.844 1082.22H954.264L953.4 1078.12L952.799 1078L953.4 1077.88L954.264 1073.78H977.844L978.708 1077.96ZM1414.6 1075.88L1415.2 1076L1414.6 1076.12L1413.74 1080.22H1390.16L1389.29 1076.04L1389.21 1076L1389.29 1075.96L1390.16 1071.78H1413.74L1414.6 1075.88ZM1236.6 1059.27C1235.9 1059.3 1235 1059.33 1233.9 1059.38C1232.82 1059.41 1231.66 1059.44 1230.41 1059.49C1229.18 1059.54 1228.01 1059.57 1226.88 1059.6C1225.75 1059.62 1224.83 1059.63 1224.11 1059.63C1223.39 1059.63 1222.46 1059.62 1221.34 1059.6C1220.21 1059.57 1219.02 1059.55 1217.77 1059.53C1216.52 1059.48 1215.35 1059.43 1214.24 1059.38C1213.12 1059.33 1212.2 1059.3 1211.51 1059.27C1210.81 1059.25 1210.46 1059.24 1210.46 1059.24L1210.07 1065.86L1210.13 1065.91L1210.07 1065.95L1210.46 1072.57C1210.46 1072.57 1210.81 1072.56 1211.51 1072.54C1212.2 1072.51 1213.12 1072.48 1214.24 1072.43C1215.35 1072.38 1216.52 1072.33 1217.77 1072.29C1219.02 1072.26 1220.21 1072.24 1221.34 1072.21C1222.46 1072.19 1223.39 1072.18 1224.11 1072.18C1224.83 1072.18 1225.75 1072.19 1226.88 1072.21C1228.01 1072.24 1229.18 1072.27 1230.41 1072.32C1231.66 1072.37 1232.82 1072.41 1233.9 1072.43C1235 1072.48 1235.9 1072.51 1236.6 1072.54C1237.28 1072.56 1237.63 1072.57 1237.64 1072.57L1238.04 1066.02L1237.46 1065.91L1238.04 1065.79L1237.64 1059.24C1237.63 1059.24 1237.28 1059.25 1236.6 1059.27ZM1236.71 1065.86L1236.78 1065.91L1236.71 1065.95L1235.84 1070.13H1212.26L1211.4 1066.02L1210.8 1065.91L1211.4 1065.79L1212.26 1061.69H1235.84L1236.71 1065.86ZM1365.6 1042.27C1364.9 1042.3 1364 1042.33 1362.9 1042.38C1361.82 1042.41 1360.66 1042.44 1359.41 1042.49C1358.18 1042.54 1357.01 1042.57 1355.88 1042.6C1354.75 1042.62 1353.83 1042.63 1353.11 1042.63C1352.39 1042.63 1351.46 1042.62 1350.34 1042.6C1349.21 1042.57 1348.02 1042.55 1346.77 1042.53C1345.52 1042.48 1344.35 1042.43 1343.24 1042.38C1342.12 1042.33 1341.2 1042.3 1340.51 1042.27C1339.81 1042.25 1339.46 1042.24 1339.46 1042.24L1339.12 1047.91L1339.07 1047.95L1339.09 1048.41L1339.07 1048.86L1339.12 1048.9L1339.46 1054.57C1339.46 1054.57 1339.81 1054.56 1340.51 1054.54C1341.2 1054.51 1342.12 1054.48 1343.24 1054.43C1344.35 1054.38 1345.52 1054.33 1346.77 1054.29C1348.02 1054.26 1349.21 1054.24 1350.34 1054.21C1351.46 1054.19 1352.39 1054.18 1353.11 1054.18C1353.83 1054.18 1354.75 1054.19 1355.88 1054.21C1357.01 1054.24 1358.18 1054.27 1359.41 1054.32C1360.66 1054.37 1361.82 1054.41 1362.9 1054.43C1364 1054.48 1364.9 1054.51 1365.6 1054.54C1366.28 1054.56 1366.63 1054.57 1366.64 1054.57L1366.99 1048.8L1367.04 1048.79L1367.02 1048.41L1367.04 1048.02L1366.99 1048.01L1366.64 1042.24C1366.63 1042.24 1366.28 1042.25 1365.6 1042.27ZM1365.61 1048.41L1364.84 1052.13H1341.26L1340.48 1048.41L1341.26 1044.69H1364.84L1365.61 1048.41ZM1261.6 1036.27C1260.9 1036.3 1260 1036.33 1258.9 1036.38C1257.82 1036.41 1256.66 1036.44 1255.41 1036.49C1254.18 1036.54 1253.01 1036.57 1251.88 1036.6C1250.75 1036.62 1249.83 1036.63 1249.11 1036.63C1248.39 1036.63 1247.46 1036.62 1246.34 1036.6C1245.21 1036.57 1244.02 1036.55 1242.77 1036.53C1241.52 1036.48 1240.35 1036.43 1239.24 1036.38C1238.12 1036.33 1237.2 1036.3 1236.51 1036.27C1235.81 1036.25 1235.46 1036.24 1235.46 1036.24L1235.07 1042.86L1235.13 1042.91L1235.07 1042.95L1235.46 1049.57C1235.46 1049.57 1235.81 1049.56 1236.51 1049.54C1237.2 1049.51 1238.12 1049.48 1239.24 1049.43C1240.35 1049.38 1241.52 1049.33 1242.77 1049.29C1244.02 1049.26 1245.21 1049.24 1246.34 1049.21C1247.46 1049.19 1248.39 1049.18 1249.11 1049.18C1249.83 1049.18 1250.75 1049.19 1251.88 1049.21C1253.01 1049.24 1254.18 1049.27 1255.41 1049.32C1256.66 1049.37 1257.82 1049.41 1258.9 1049.43C1260 1049.48 1260.9 1049.51 1261.6 1049.54C1262.28 1049.56 1262.63 1049.57 1262.64 1049.57L1263.04 1043.02L1262.46 1042.91L1263.04 1042.79L1262.64 1036.24C1262.63 1036.24 1262.28 1036.25 1261.6 1036.27ZM1261.71 1042.86L1261.78 1042.91L1261.71 1042.95L1260.84 1047.13H1237.26L1236.4 1043.02L1235.8 1042.91L1236.4 1042.79L1237.26 1038.69H1260.84L1261.71 1042.86ZM1082.6 1028.27C1081.9 1028.3 1081 1028.33 1079.9 1028.38C1078.82 1028.41 1077.66 1028.44 1076.41 1028.49C1075.18 1028.54 1074.01 1028.57 1072.88 1028.6C1071.75 1028.62 1070.83 1028.63 1070.11 1028.63C1069.39 1028.63 1068.46 1028.62 1067.34 1028.6C1066.21 1028.57 1065.02 1028.55 1063.77 1028.53C1062.52 1028.48 1061.35 1028.43 1060.24 1028.38C1059.12 1028.33 1058.2 1028.3 1057.51 1028.27C1056.81 1028.25 1056.46 1028.24 1056.46 1028.24L1056.07 1034.86L1056.13 1034.91L1056.07 1034.95L1056.46 1041.57C1056.46 1041.57 1056.81 1041.56 1057.51 1041.54C1058.2 1041.51 1059.12 1041.48 1060.24 1041.43C1061.35 1041.38 1062.52 1041.33 1063.77 1041.29C1065.02 1041.26 1066.21 1041.24 1067.34 1041.21C1068.46 1041.19 1069.39 1041.18 1070.11 1041.18C1070.83 1041.18 1071.75 1041.19 1072.88 1041.21C1074.01 1041.24 1075.18 1041.27 1076.41 1041.32C1077.66 1041.37 1078.82 1041.41 1079.9 1041.43C1081 1041.48 1081.9 1041.51 1082.6 1041.54C1083.28 1041.56 1083.63 1041.57 1083.64 1041.57L1084.04 1035.02L1083.46 1034.91L1084.04 1034.79L1083.64 1028.24C1083.63 1028.24 1083.28 1028.25 1082.6 1028.27ZM1355.6 1028.27C1354.9 1028.3 1354 1028.33 1352.9 1028.38C1351.82 1028.41 1350.66 1028.44 1349.41 1028.49C1348.18 1028.54 1347.01 1028.57 1345.88 1028.6C1344.75 1028.62 1343.83 1028.63 1343.11 1028.63C1342.39 1028.63 1341.46 1028.62 1340.34 1028.6C1339.21 1028.57 1338.02 1028.55 1336.77 1028.53C1335.52 1028.48 1334.35 1028.43 1333.24 1028.38C1332.12 1028.33 1331.2 1028.3 1330.51 1028.27C1329.81 1028.25 1329.46 1028.24 1329.46 1028.24L1329.19 1032.87L1329.07 1032.95L1329.12 1033.91L1329.07 1034.86L1329.19 1034.94L1329.46 1039.57C1329.46 1039.57 1329.81 1039.56 1330.51 1039.54C1331.2 1039.51 1332.12 1039.48 1333.24 1039.43C1334.35 1039.38 1335.52 1039.33 1336.77 1039.29C1338.02 1039.26 1339.21 1039.24 1340.34 1039.21C1341.46 1039.19 1342.39 1039.18 1343.11 1039.18C1343.83 1039.18 1344.75 1039.19 1345.88 1039.21C1347.01 1039.24 1348.18 1039.27 1349.41 1039.32C1350.66 1039.37 1351.82 1039.41 1352.9 1039.43C1354 1039.48 1354.9 1039.51 1355.6 1039.54C1356.28 1039.56 1356.63 1039.57 1356.64 1039.57L1356.93 1034.81L1357.04 1034.79L1356.99 1033.91L1357.04 1033.02L1356.93 1033L1356.64 1028.24C1356.63 1028.24 1356.28 1028.25 1355.6 1028.27ZM1082.71 1034.86L1082.78 1034.91L1082.71 1034.95L1081.84 1039.13H1058.26L1057.4 1035.02L1056.8 1034.91L1057.4 1034.79L1058.26 1030.69H1081.84L1082.71 1034.86ZM1355.51 1033.91L1354.84 1037.13H1331.26L1330.59 1033.91L1331.26 1030.69H1354.84L1355.51 1033.91ZM1375.6 1014.27C1374.9 1014.3 1374 1014.33 1372.9 1014.38C1371.82 1014.41 1370.66 1014.44 1369.41 1014.49C1368.18 1014.54 1367.01 1014.57 1365.88 1014.6C1364.75 1014.62 1363.83 1014.63 1363.11 1014.63C1362.39 1014.63 1361.46 1014.62 1360.34 1014.6C1359.21 1014.57 1358.02 1014.55 1356.77 1014.53C1355.52 1014.48 1354.35 1014.43 1353.24 1014.38C1352.12 1014.33 1351.2 1014.3 1350.51 1014.27C1349.81 1014.25 1349.46 1014.24 1349.46 1014.24L1349.12 1019.91L1349.07 1019.95L1349.09 1020.41L1349.07 1020.86L1349.12 1020.9L1349.46 1026.57C1349.46 1026.57 1349.81 1026.56 1350.51 1026.54C1351.2 1026.51 1352.12 1026.48 1353.24 1026.43C1354.35 1026.38 1355.52 1026.33 1356.77 1026.29C1358.02 1026.26 1359.21 1026.24 1360.34 1026.21C1361.46 1026.19 1362.39 1026.18 1363.11 1026.18C1363.83 1026.18 1364.75 1026.19 1365.88 1026.21C1367.01 1026.24 1368.18 1026.27 1369.41 1026.32C1370.66 1026.37 1371.82 1026.41 1372.9 1026.43C1374 1026.48 1374.9 1026.51 1375.6 1026.54C1376.28 1026.56 1376.63 1026.57 1376.64 1026.57L1376.99 1020.8L1377.04 1020.79L1377.02 1020.41L1377.04 1020.02L1376.99 1020.01L1376.64 1014.24C1376.63 1014.24 1376.28 1014.25 1375.6 1014.27ZM1375.61 1020.41L1374.84 1024.13H1351.26L1350.48 1020.41L1351.26 1016.69H1374.84L1375.61 1020.41ZM1107.6 1005.27C1106.9 1005.3 1106 1005.33 1104.9 1005.38C1103.82 1005.41 1102.66 1005.44 1101.41 1005.49C1100.18 1005.54 1099.01 1005.57 1097.88 1005.6C1096.75 1005.62 1095.83 1005.63 1095.11 1005.63C1094.39 1005.63 1093.46 1005.62 1092.34 1005.6C1091.21 1005.57 1090.02 1005.55 1088.77 1005.53C1087.52 1005.48 1086.35 1005.43 1085.24 1005.38C1084.12 1005.33 1083.2 1005.3 1082.51 1005.27C1081.81 1005.25 1081.46 1005.24 1081.46 1005.24L1081.07 1011.86L1081.13 1011.91L1081.07 1011.95L1081.46 1018.57C1081.46 1018.57 1081.81 1018.56 1082.51 1018.54C1083.2 1018.51 1084.12 1018.48 1085.24 1018.43C1086.35 1018.38 1087.52 1018.33 1088.77 1018.29C1090.02 1018.26 1091.21 1018.24 1092.34 1018.21C1093.46 1018.19 1094.39 1018.18 1095.11 1018.18C1095.83 1018.18 1096.75 1018.19 1097.88 1018.21C1099.01 1018.24 1100.18 1018.27 1101.41 1018.32C1102.66 1018.37 1103.82 1018.41 1104.9 1018.43C1106 1018.48 1106.9 1018.51 1107.6 1018.54C1108.28 1018.56 1108.63 1018.57 1108.64 1018.57L1109.04 1012.02L1108.46 1011.91L1109.04 1011.79L1108.64 1005.24C1108.63 1005.24 1108.28 1005.25 1107.6 1005.27ZM1107.71 1011.86L1107.78 1011.91L1107.71 1011.95L1106.84 1016.13H1083.26L1082.4 1012.02L1081.8 1011.91L1082.4 1011.79L1083.26 1007.69H1106.84L1107.71 1011.86ZM1047.6 989.274C1046.9 989.298 1046 989.334 1044.9 989.382C1043.82 989.406 1042.66 989.442 1041.41 989.49C1040.18 989.538 1039.01 989.575 1037.88 989.599C1036.75 989.623 1035.83 989.634 1035.11 989.634C1034.39 989.634 1033.46 989.623 1032.34 989.599C1031.21 989.575 1030.02 989.55 1028.77 989.526C1027.52 989.478 1026.35 989.43 1025.24 989.382C1024.12 989.334 1023.2 989.298 1022.51 989.274C1021.81 989.25 1021.46 989.238 1021.46 989.238L1021.07 995.862L1021.13 995.906L1021.07 995.95L1021.46 1002.57C1021.46 1002.57 1021.81 1002.56 1022.51 1002.54C1023.2 1002.51 1024.12 1002.48 1025.24 1002.43C1026.35 1002.38 1027.52 1002.33 1028.77 1002.29C1030.02 1002.26 1031.21 1002.24 1032.34 1002.21C1033.46 1002.19 1034.39 1002.18 1035.11 1002.18C1035.83 1002.18 1036.75 1002.19 1037.88 1002.21C1039.01 1002.24 1040.18 1002.27 1041.41 1002.32C1042.66 1002.37 1043.82 1002.41 1044.9 1002.43C1046 1002.48 1046.9 1002.51 1047.6 1002.54C1048.28 1002.56 1048.63 1002.57 1048.64 1002.57L1049.04 996.022L1048.46 995.906L1049.04 995.79L1048.64 989.238C1048.63 989.239 1048.28 989.251 1047.6 989.274ZM1047.71 995.862L1047.78 995.906L1047.71 995.95L1046.84 1000.13H1023.26L1022.4 996.022L1021.8 995.906L1022.4 995.79L1023.26 991.687H1046.84L1047.71 995.862ZM1307.49 975.368C1306.8 975.392 1305.88 975.428 1304.76 975.476C1303.65 975.524 1302.48 975.572 1301.23 975.62C1299.98 975.644 1298.79 975.668 1297.66 975.692C1296.54 975.716 1295.61 975.728 1294.89 975.728C1294.17 975.728 1293.25 975.716 1292.12 975.692C1290.99 975.668 1289.82 975.632 1288.59 975.584C1287.34 975.536 1286.18 975.5 1285.1 975.476C1284 975.428 1283.1 975.392 1282.4 975.368C1281.72 975.345 1281.37 975.333 1281.36 975.332L1281.01 981.106L1280.96 981.116L1280.98 981.5L1280.96 981.884L1281.01 981.893L1281.36 987.668C1281.37 987.667 1281.72 987.655 1282.4 987.632C1283.1 987.608 1284 987.572 1285.1 987.524C1286.18 987.5 1287.34 987.464 1288.59 987.416C1289.82 987.368 1290.99 987.332 1292.12 987.308C1293.25 987.284 1294.17 987.272 1294.89 987.272C1295.61 987.272 1296.54 987.284 1297.66 987.308C1298.79 987.332 1299.98 987.356 1301.23 987.38C1302.48 987.428 1303.65 987.476 1304.76 987.524C1305.88 987.572 1306.8 987.608 1307.49 987.632C1308.19 987.656 1308.54 987.668 1308.54 987.668L1308.87 981.993L1308.93 981.956L1308.9 981.5L1308.93 981.044L1308.87 981.006L1308.54 975.332C1308.54 975.332 1308.19 975.344 1307.49 975.368ZM1307.52 981.5L1306.74 985.22H1283.16L1282.39 981.5L1283.16 977.78H1306.74L1307.52 981.5ZM1187.6 970.274C1186.9 970.298 1186 970.334 1184.9 970.382C1183.82 970.406 1182.66 970.442 1181.41 970.49C1180.18 970.538 1179.01 970.575 1177.88 970.599C1176.75 970.623 1175.83 970.634 1175.11 970.634C1174.39 970.634 1173.46 970.623 1172.34 970.599C1171.21 970.575 1170.02 970.55 1168.77 970.526C1167.52 970.478 1166.35 970.43 1165.24 970.382C1164.12 970.334 1163.2 970.298 1162.51 970.274C1161.81 970.25 1161.46 970.238 1161.46 970.238L1161.07 976.862L1161.13 976.906L1161.07 976.95L1161.46 983.574C1161.46 983.574 1161.81 983.562 1162.51 983.538C1163.2 983.514 1164.12 983.479 1165.24 983.431C1166.35 983.383 1167.52 983.334 1168.77 983.286C1170.02 983.262 1171.21 983.238 1172.34 983.214C1173.46 983.19 1174.39 983.179 1175.11 983.179C1175.83 983.179 1176.75 983.19 1177.88 983.214C1179.01 983.238 1180.18 983.274 1181.41 983.322C1182.66 983.37 1183.82 983.407 1184.9 983.431C1186 983.479 1186.9 983.514 1187.6 983.538C1188.28 983.562 1188.63 983.574 1188.64 983.574L1189.04 977.022L1188.46 976.906L1189.04 976.79L1188.64 970.238C1188.63 970.239 1188.28 970.251 1187.6 970.274ZM1187.71 976.862L1187.78 976.906L1187.71 976.95L1186.84 981.126H1163.26L1162.4 977.022L1161.8 976.906L1162.4 976.79L1163.26 972.687H1186.84L1187.71 976.862ZM1212.6 947.274C1211.9 947.298 1211 947.334 1209.9 947.382C1208.82 947.406 1207.66 947.442 1206.41 947.49C1205.18 947.538 1204.01 947.575 1202.88 947.599C1201.75 947.623 1200.83 947.634 1200.11 947.634C1199.39 947.634 1198.46 947.623 1197.34 947.599C1196.21 947.575 1195.02 947.55 1193.77 947.526C1192.52 947.478 1191.35 947.43 1190.24 947.382C1189.12 947.334 1188.2 947.298 1187.51 947.274C1186.81 947.25 1186.46 947.238 1186.46 947.238L1186.07 953.862L1186.13 953.906L1186.07 953.95L1186.46 960.574C1186.46 960.574 1186.81 960.562 1187.51 960.538C1188.2 960.514 1189.12 960.479 1190.24 960.431C1191.35 960.383 1192.52 960.334 1193.77 960.286C1195.02 960.262 1196.21 960.238 1197.34 960.214C1198.46 960.19 1199.39 960.179 1200.11 960.179C1200.83 960.179 1201.75 960.19 1202.88 960.214C1204.01 960.238 1205.18 960.274 1206.41 960.322C1207.66 960.37 1208.82 960.407 1209.9 960.431C1211 960.479 1211.9 960.514 1212.6 960.538C1213.28 960.562 1213.63 960.574 1213.64 960.574L1214.04 954.022L1213.46 953.906L1214.04 953.79L1213.64 947.238C1213.63 947.239 1213.28 947.251 1212.6 947.274ZM1297.49 947.368C1296.8 947.392 1295.88 947.428 1294.76 947.476C1293.65 947.524 1292.48 947.572 1291.23 947.62C1289.98 947.644 1288.79 947.668 1287.66 947.692C1286.54 947.716 1285.61 947.728 1284.89 947.728C1284.17 947.728 1283.25 947.716 1282.12 947.692C1280.99 947.668 1279.82 947.632 1278.59 947.584C1277.34 947.536 1276.18 947.5 1275.1 947.476C1274 947.428 1273.1 947.392 1272.4 947.368C1271.72 947.345 1271.37 947.333 1271.36 947.332L1271.01 953.106L1270.96 953.116L1270.98 953.5L1270.96 953.884L1271.01 953.893L1271.36 959.668C1271.37 959.667 1271.72 959.655 1272.4 959.632C1273.1 959.608 1274 959.572 1275.1 959.524C1276.18 959.5 1277.34 959.464 1278.59 959.416C1279.82 959.368 1280.99 959.332 1282.12 959.308C1283.25 959.284 1284.17 959.272 1284.89 959.272C1285.61 959.272 1286.54 959.284 1287.66 959.308C1288.79 959.332 1289.98 959.356 1291.23 959.38C1292.48 959.428 1293.65 959.476 1294.76 959.524C1295.88 959.572 1296.8 959.608 1297.49 959.632C1298.19 959.656 1298.54 959.668 1298.54 959.668L1298.87 953.993L1298.93 953.956L1298.9 953.5L1298.93 953.044L1298.87 953.006L1298.54 947.332C1298.54 947.332 1298.19 947.344 1297.49 947.368ZM1212.71 953.862L1212.78 953.906L1212.71 953.95L1211.84 958.126H1188.26L1187.4 954.022L1186.8 953.906L1187.4 953.79L1188.26 949.687H1211.84L1212.71 953.862ZM1297.52 953.5L1296.74 957.22H1273.16L1272.39 953.5L1273.16 949.78H1296.74L1297.52 953.5ZM1131.6 932.274C1130.9 932.298 1130 932.334 1128.9 932.382C1127.82 932.406 1126.66 932.442 1125.41 932.49C1124.18 932.538 1123.01 932.575 1121.88 932.599C1120.75 932.623 1119.83 932.634 1119.11 932.634C1118.39 932.634 1117.46 932.623 1116.34 932.599C1115.21 932.575 1114.02 932.55 1112.77 932.526C1111.52 932.478 1110.35 932.43 1109.24 932.382C1108.12 932.334 1107.2 932.298 1106.51 932.274C1105.81 932.25 1105.46 932.238 1105.46 932.238L1105.07 938.862L1105.13 938.906L1105.07 938.95L1105.46 945.574C1105.46 945.574 1105.81 945.562 1106.51 945.538C1107.2 945.514 1108.12 945.479 1109.24 945.431C1110.35 945.383 1111.52 945.334 1112.77 945.286C1114.02 945.262 1115.21 945.238 1116.34 945.214C1117.46 945.19 1118.39 945.179 1119.11 945.179C1119.83 945.179 1120.75 945.19 1121.88 945.214C1123.01 945.238 1124.18 945.274 1125.41 945.322C1126.66 945.37 1127.82 945.407 1128.9 945.431C1130 945.479 1130.9 945.514 1131.6 945.538C1132.28 945.562 1132.63 945.574 1132.64 945.574L1133.04 939.022L1132.46 938.906L1133.04 938.79L1132.64 932.238C1132.63 932.239 1132.28 932.251 1131.6 932.274ZM1131.71 938.862L1131.78 938.906L1131.71 938.95L1130.84 943.126H1107.26L1106.4 939.022L1105.8 938.906L1106.4 938.79L1107.26 934.687H1130.84L1131.71 938.862ZM1363.49 919.274C1362.8 919.298 1361.88 919.334 1360.76 919.382C1359.65 919.43 1358.48 919.478 1357.23 919.526C1355.98 919.55 1354.79 919.575 1353.66 919.599C1352.54 919.623 1351.61 919.634 1350.89 919.634C1350.17 919.634 1349.25 919.623 1348.12 919.599C1346.99 919.575 1345.82 919.538 1344.59 919.49C1343.34 919.442 1342.18 919.406 1341.1 919.382C1340 919.334 1339.1 919.298 1338.4 919.274C1337.72 919.251 1337.37 919.239 1337.36 919.238L1336.96 925.79L1337.54 925.906L1336.96 926.022L1337.36 932.574C1337.37 932.574 1337.72 932.562 1338.4 932.538C1339.1 932.514 1340 932.479 1341.1 932.431C1342.18 932.407 1343.34 932.37 1344.59 932.322C1345.82 932.274 1346.99 932.238 1348.12 932.214C1349.25 932.19 1350.17 932.179 1350.89 932.179C1351.61 932.179 1352.54 932.19 1353.66 932.214C1354.79 932.238 1355.98 932.262 1357.23 932.286C1358.48 932.334 1359.65 932.383 1360.76 932.431C1361.88 932.479 1362.8 932.514 1363.49 932.538C1364.19 932.562 1364.54 932.574 1364.54 932.574L1364.93 925.95L1364.87 925.906L1364.93 925.862L1364.54 919.238C1364.54 919.238 1364.19 919.25 1363.49 919.274ZM973.6 917.368C972.904 917.392 972.004 917.428 970.9 917.476C969.82 917.5 968.656 917.536 967.408 917.584C966.184 917.632 965.008 917.668 963.88 917.692C962.752 917.716 961.828 917.728 961.108 917.728C960.388 917.728 959.464 917.716 958.336 917.692C957.208 917.668 956.02 917.644 954.772 917.62C953.525 917.572 952.348 917.524 951.244 917.476C950.116 917.428 949.204 917.392 948.508 917.368C947.812 917.344 947.464 917.332 947.464 917.332L947.068 923.956L947.134 924L947.068 924.044L947.464 930.668C947.464 930.668 947.812 930.656 948.508 930.632C949.204 930.608 950.116 930.572 951.244 930.524C952.348 930.476 953.525 930.428 954.772 930.38C956.02 930.356 957.208 930.332 958.336 930.308C959.464 930.284 960.388 930.272 961.108 930.272C961.828 930.272 962.752 930.284 963.88 930.308C965.008 930.332 966.184 930.368 967.408 930.416C968.656 930.464 969.82 930.5 970.9 930.524C972.004 930.572 972.904 930.608 973.6 930.632C974.281 930.655 974.629 930.667 974.644 930.668L975.04 924.116L974.458 924L975.04 923.884L974.644 917.332C974.629 917.333 974.281 917.345 973.6 917.368ZM1363.6 925.79L1364.2 925.906L1363.6 926.022L1362.74 930.126H1339.16L1338.29 925.95L1338.21 925.906L1338.29 925.862L1339.16 921.687H1362.74L1363.6 925.79ZM973.708 923.956L973.784 924L973.708 924.044L972.844 928.22H949.264L948.4 924.116L947.799 924L948.4 923.884L949.264 919.78H972.844L973.708 923.956ZM1234.49 902.274C1233.8 902.298 1232.88 902.334 1231.76 902.382C1230.65 902.43 1229.48 902.478 1228.23 902.526C1226.98 902.55 1225.79 902.575 1224.66 902.599C1223.54 902.623 1222.61 902.634 1221.89 902.634C1221.17 902.634 1220.25 902.623 1219.12 902.599C1217.99 902.575 1216.82 902.538 1215.59 902.49C1214.34 902.442 1213.18 902.406 1212.1 902.382C1211 902.334 1210.1 902.298 1209.4 902.274C1208.72 902.251 1208.37 902.239 1208.36 902.238L1208.01 908.013L1207.96 908.022L1207.98 908.406L1207.96 908.79L1208.01 908.799L1208.36 914.574C1208.37 914.574 1208.72 914.562 1209.4 914.538C1210.1 914.514 1211 914.479 1212.1 914.431C1213.18 914.407 1214.34 914.37 1215.59 914.322C1216.82 914.274 1217.99 914.238 1219.12 914.214C1220.25 914.19 1221.17 914.179 1221.89 914.179C1222.61 914.179 1223.54 914.19 1224.66 914.214C1225.79 914.238 1226.98 914.262 1228.23 914.286C1229.48 914.334 1230.65 914.383 1231.76 914.431C1232.88 914.479 1233.8 914.514 1234.49 914.538C1235.19 914.562 1235.54 914.574 1235.54 914.574L1235.87 908.899L1235.93 908.862L1235.9 908.406L1235.93 907.95L1235.87 907.912L1235.54 902.238C1235.54 902.238 1235.19 902.25 1234.49 902.274ZM955.6 899.274C954.904 899.298 954.004 899.334 952.9 899.382C951.82 899.406 950.656 899.442 949.408 899.49C948.184 899.538 947.008 899.575 945.88 899.599C944.752 899.623 943.828 899.634 943.108 899.634C942.388 899.634 941.464 899.623 940.336 899.599C939.208 899.575 938.02 899.55 936.772 899.526C935.525 899.478 934.348 899.43 933.244 899.382C932.116 899.334 931.204 899.298 930.508 899.274C929.812 899.25 929.464 899.238 929.464 899.238L929.068 905.862L929.134 905.906L929.068 905.95L929.464 912.574C929.464 912.574 929.812 912.562 930.508 912.538C931.204 912.514 932.116 912.479 933.244 912.431C934.348 912.383 935.525 912.334 936.772 912.286C938.02 912.262 939.208 912.238 940.336 912.214C941.464 912.19 942.388 912.179 943.108 912.179C943.828 912.179 944.752 912.19 945.88 912.214C947.008 912.238 948.184 912.274 949.408 912.322C950.656 912.37 951.82 912.407 952.9 912.431C954.004 912.479 954.904 912.514 955.6 912.538C956.281 912.562 956.629 912.574 956.644 912.574L957.04 906.022L956.458 905.906L957.04 905.79L956.644 899.238C956.629 899.239 956.281 899.251 955.6 899.274ZM990.6 899.274C989.904 899.298 989.004 899.334 987.9 899.382C986.82 899.406 985.656 899.442 984.408 899.49C983.184 899.538 982.008 899.575 980.88 899.599C979.752 899.623 978.828 899.634 978.108 899.634C977.388 899.634 976.464 899.623 975.336 899.599C974.208 899.575 973.02 899.55 971.772 899.526C970.525 899.478 969.348 899.43 968.244 899.382C967.116 899.334 966.204 899.298 965.508 899.274C964.812 899.25 964.464 899.238 964.464 899.238L964.068 905.862L964.134 905.906L964.068 905.95L964.464 912.574C964.464 912.574 964.812 912.562 965.508 912.538C966.204 912.514 967.116 912.479 968.244 912.431C969.348 912.383 970.525 912.334 971.772 912.286C973.02 912.262 974.208 912.238 975.336 912.214C976.464 912.19 977.388 912.179 978.108 912.179C978.828 912.179 979.752 912.19 980.88 912.214C982.008 912.238 983.184 912.274 984.408 912.322C985.656 912.37 986.82 912.407 987.9 912.431C989.004 912.479 989.904 912.514 990.6 912.538C991.281 912.562 991.629 912.574 991.644 912.574L992.04 906.022L991.458 905.906L992.04 905.79L991.644 899.238C991.629 899.239 991.281 899.251 990.6 899.274ZM1234.52 908.406L1233.74 912.126H1210.16L1209.39 908.406L1210.16 904.687H1233.74L1234.52 908.406ZM955.708 905.862L955.784 905.906L955.708 905.95L954.844 910.126H931.264L930.4 906.022L929.799 905.906L930.4 905.79L931.264 901.687H954.844L955.708 905.862ZM990.708 905.862L990.784 905.906L990.708 905.95L989.844 910.126H966.264L965.4 906.022L964.799 905.906L965.4 905.79L966.264 901.687H989.844L990.708 905.862ZM1338.49 896.274C1337.8 896.298 1336.88 896.334 1335.76 896.382C1334.65 896.43 1333.48 896.478 1332.23 896.526C1330.98 896.55 1329.79 896.575 1328.66 896.599C1327.54 896.623 1326.61 896.634 1325.89 896.634C1325.17 896.634 1324.25 896.623 1323.12 896.599C1321.99 896.575 1320.82 896.538 1319.59 896.49C1318.34 896.442 1317.18 896.406 1316.1 896.382C1315 896.334 1314.1 896.298 1313.4 896.274C1312.72 896.251 1312.37 896.239 1312.36 896.238L1311.96 902.79L1312.54 902.906L1311.96 903.022L1312.36 909.574C1312.37 909.574 1312.72 909.562 1313.4 909.538C1314.1 909.514 1315 909.479 1316.1 909.431C1317.18 909.407 1318.34 909.37 1319.59 909.322C1320.82 909.274 1321.99 909.238 1323.12 909.214C1324.25 909.19 1325.17 909.179 1325.89 909.179C1326.61 909.179 1327.54 909.19 1328.66 909.214C1329.79 909.238 1330.98 909.262 1332.23 909.286C1333.48 909.334 1334.65 909.383 1335.76 909.431C1336.88 909.479 1337.8 909.514 1338.49 909.538C1339.19 909.562 1339.54 909.574 1339.54 909.574L1339.93 902.95L1339.87 902.906L1339.93 902.862L1339.54 896.238C1339.54 896.238 1339.19 896.25 1338.49 896.274ZM1338.6 902.79L1339.2 902.906L1338.6 903.022L1337.74 907.126H1314.16L1313.29 902.95L1313.21 902.906L1313.29 902.862L1314.16 898.687H1337.74L1338.6 902.79ZM1200.49 891.274C1199.8 891.298 1198.88 891.334 1197.76 891.382C1196.65 891.43 1195.48 891.478 1194.23 891.526C1192.98 891.55 1191.79 891.575 1190.66 891.599C1189.54 891.623 1188.61 891.634 1187.89 891.634C1187.17 891.634 1186.25 891.623 1185.12 891.599C1183.99 891.575 1182.82 891.538 1181.59 891.49C1180.34 891.442 1179.18 891.406 1178.1 891.382C1177 891.334 1176.1 891.298 1175.4 891.274C1174.72 891.251 1174.37 891.239 1174.36 891.238L1173.96 897.79L1174.54 897.906L1173.96 898.022L1174.36 904.574C1174.37 904.574 1174.72 904.562 1175.4 904.538C1176.1 904.514 1177 904.479 1178.1 904.431C1179.18 904.407 1180.34 904.37 1181.59 904.322C1182.82 904.274 1183.99 904.238 1185.12 904.214C1186.25 904.19 1187.17 904.179 1187.89 904.179C1188.61 904.179 1189.54 904.19 1190.66 904.214C1191.79 904.238 1192.98 904.262 1194.23 904.286C1195.48 904.334 1196.65 904.383 1197.76 904.431C1198.88 904.479 1199.8 904.514 1200.49 904.538C1201.19 904.562 1201.54 904.574 1201.54 904.574L1201.93 897.95L1201.87 897.906L1201.93 897.862L1201.54 891.238C1201.54 891.238 1201.19 891.25 1200.49 891.274ZM1200.6 897.79L1201.2 897.906L1200.6 898.022L1199.74 902.126H1176.16L1175.29 897.95L1175.21 897.906L1175.29 897.862L1176.16 893.687H1199.74L1200.6 897.79ZM1071.49 874.274C1070.8 874.298 1069.88 874.334 1068.76 874.382C1067.65 874.43 1066.48 874.478 1065.23 874.526C1063.98 874.55 1062.79 874.575 1061.66 874.599C1060.54 874.623 1059.61 874.634 1058.89 874.634C1058.17 874.634 1057.25 874.623 1056.12 874.599C1054.99 874.575 1053.82 874.538 1052.59 874.49C1051.34 874.442 1050.18 874.406 1049.1 874.382C1048 874.334 1047.1 874.298 1046.4 874.274C1045.72 874.251 1045.37 874.239 1045.36 874.238L1045.01 880.013L1044.96 880.022L1044.98 880.406L1044.96 880.79L1045.01 880.799L1045.36 886.574C1045.37 886.574 1045.72 886.562 1046.4 886.538C1047.1 886.514 1048 886.479 1049.1 886.431C1050.18 886.407 1051.34 886.37 1052.59 886.322C1053.82 886.274 1054.99 886.238 1056.12 886.214C1057.25 886.19 1058.17 886.179 1058.89 886.179C1059.61 886.179 1060.54 886.19 1061.66 886.214C1062.79 886.238 1063.98 886.262 1065.23 886.286C1066.48 886.334 1067.65 886.383 1068.76 886.431C1069.88 886.479 1070.8 886.514 1071.49 886.538C1072.19 886.562 1072.54 886.574 1072.54 886.574L1072.87 880.899L1072.93 880.862L1072.9 880.406L1072.93 879.95L1072.87 879.912L1072.54 874.238C1072.54 874.238 1072.19 874.25 1071.49 874.274ZM1224.49 874.274C1223.8 874.298 1222.88 874.334 1221.76 874.382C1220.65 874.43 1219.48 874.478 1218.23 874.526C1216.98 874.55 1215.79 874.575 1214.66 874.599C1213.54 874.623 1212.61 874.634 1211.89 874.634C1211.17 874.634 1210.25 874.623 1209.12 874.599C1207.99 874.575 1206.82 874.538 1205.59 874.49C1204.34 874.442 1203.18 874.406 1202.1 874.382C1201 874.334 1200.1 874.298 1199.4 874.274C1198.72 874.251 1198.37 874.239 1198.36 874.238L1198.01 880.013L1197.96 880.022L1197.98 880.406L1197.96 880.79L1198.01 880.799L1198.36 886.574C1198.37 886.574 1198.72 886.562 1199.4 886.538C1200.1 886.514 1201 886.479 1202.1 886.431C1203.18 886.407 1204.34 886.37 1205.59 886.322C1206.82 886.274 1207.99 886.238 1209.12 886.214C1210.25 886.19 1211.17 886.179 1211.89 886.179C1212.61 886.179 1213.54 886.19 1214.66 886.214C1215.79 886.238 1216.98 886.262 1218.23 886.286C1219.48 886.334 1220.65 886.383 1221.76 886.431C1222.88 886.479 1223.8 886.514 1224.49 886.538C1225.19 886.562 1225.54 886.574 1225.54 886.574L1225.87 880.899L1225.93 880.862L1225.9 880.406L1225.93 879.95L1225.87 879.912L1225.54 874.238C1225.54 874.238 1225.19 874.25 1224.49 874.274ZM1071.52 880.406L1070.74 884.126H1047.16L1046.39 880.406L1047.16 876.687H1070.74L1071.52 880.406ZM1224.52 880.406L1223.74 884.126H1200.16L1199.39 880.406L1200.16 876.687H1223.74L1224.52 880.406ZM1175.49 868.274C1174.8 868.298 1173.88 868.334 1172.76 868.382C1171.65 868.43 1170.48 868.478 1169.23 868.526C1167.98 868.55 1166.79 868.575 1165.66 868.599C1164.54 868.623 1163.61 868.634 1162.89 868.634C1162.17 868.634 1161.25 868.623 1160.12 868.599C1158.99 868.575 1157.82 868.538 1156.59 868.49C1155.34 868.442 1154.18 868.406 1153.1 868.382C1152 868.334 1151.1 868.298 1150.4 868.274C1149.72 868.251 1149.37 868.239 1149.36 868.238L1148.96 874.79L1149.54 874.906L1148.96 875.022L1149.36 881.574C1149.37 881.574 1149.72 881.562 1150.4 881.538C1151.1 881.514 1152 881.479 1153.1 881.431C1154.18 881.407 1155.34 881.37 1156.59 881.322C1157.82 881.274 1158.99 881.238 1160.12 881.214C1161.25 881.19 1162.17 881.179 1162.89 881.179C1163.61 881.179 1164.54 881.19 1165.66 881.214C1166.79 881.238 1167.98 881.262 1169.23 881.286C1170.48 881.334 1171.65 881.383 1172.76 881.431C1173.88 881.479 1174.8 881.514 1175.49 881.538C1176.19 881.562 1176.54 881.574 1176.54 881.574L1176.93 874.95L1176.87 874.906L1176.93 874.862L1176.54 868.238C1176.54 868.238 1176.19 868.25 1175.49 868.274ZM811.6 866.274C810.904 866.298 810.004 866.334 808.9 866.382C807.82 866.406 806.656 866.442 805.408 866.49C804.184 866.538 803.008 866.575 801.88 866.599C800.752 866.623 799.828 866.634 799.108 866.634C798.388 866.634 797.464 866.623 796.336 866.599C795.208 866.575 794.02 866.55 792.772 866.526C791.525 866.478 790.348 866.43 789.244 866.382C788.116 866.334 787.204 866.298 786.508 866.274C785.812 866.25 785.464 866.238 785.464 866.238L785.068 872.862L785.134 872.906L785.068 872.95L785.464 879.574C785.464 879.574 785.812 879.562 786.508 879.538C787.204 879.514 788.116 879.479 789.244 879.431C790.348 879.383 791.525 879.334 792.772 879.286C794.02 879.262 795.208 879.238 796.336 879.214C797.464 879.19 798.388 879.179 799.108 879.179C799.828 879.179 800.752 879.19 801.88 879.214C803.008 879.238 804.184 879.274 805.408 879.322C806.656 879.37 807.82 879.407 808.9 879.431C810.004 879.479 810.904 879.514 811.6 879.538C812.281 879.562 812.629 879.574 812.644 879.574L813.04 873.022L812.458 872.906L813.04 872.79L812.644 866.238C812.629 866.239 812.281 866.251 811.6 866.274ZM853.6 866.274C852.904 866.298 852.004 866.334 850.9 866.382C849.82 866.406 848.656 866.442 847.408 866.49C846.184 866.538 845.008 866.575 843.88 866.599C842.752 866.623 841.828 866.634 841.108 866.634C840.388 866.634 839.464 866.623 838.336 866.599C837.208 866.575 836.02 866.55 834.772 866.526C833.525 866.478 832.348 866.43 831.244 866.382C830.116 866.334 829.204 866.298 828.508 866.274C827.812 866.25 827.464 866.238 827.464 866.238L827.068 872.862L827.134 872.906L827.068 872.95L827.464 879.574C827.464 879.574 827.812 879.562 828.508 879.538C829.204 879.514 830.116 879.479 831.244 879.431C832.348 879.383 833.525 879.334 834.772 879.286C836.02 879.262 837.208 879.238 838.336 879.214C839.464 879.19 840.388 879.179 841.108 879.179C841.828 879.179 842.752 879.19 843.88 879.214C845.008 879.238 846.184 879.274 847.408 879.322C848.656 879.37 849.82 879.407 850.9 879.431C852.004 879.479 852.904 879.514 853.6 879.538C854.281 879.562 854.629 879.574 854.644 879.574L855.04 873.022L854.458 872.906L855.04 872.79L854.644 866.238C854.629 866.239 854.281 866.251 853.6 866.274ZM1175.6 874.79L1176.2 874.906L1175.6 875.022L1174.74 879.126H1151.16L1150.29 874.95L1150.21 874.906L1150.29 874.862L1151.16 870.687H1174.74L1175.6 874.79ZM811.708 872.862L811.784 872.906L811.708 872.95L810.844 877.126H787.264L786.4 873.022L785.799 872.906L786.4 872.79L787.264 868.687H810.844L811.708 872.862ZM853.708 872.862L853.784 872.906L853.708 872.95L852.844 877.126H829.264L828.4 873.022L827.799 872.906L828.4 872.79L829.264 868.687H852.844L853.708 872.862ZM1081.49 860.274C1080.8 860.298 1079.88 860.334 1078.76 860.382C1077.65 860.43 1076.48 860.478 1075.23 860.526C1073.98 860.55 1072.79 860.575 1071.66 860.599C1070.54 860.623 1069.61 860.634 1068.89 860.634C1068.17 860.634 1067.25 860.623 1066.12 860.599C1064.99 860.575 1063.82 860.538 1062.59 860.49C1061.34 860.442 1060.18 860.406 1059.1 860.382C1058 860.334 1057.1 860.298 1056.4 860.274C1055.72 860.251 1055.37 860.239 1055.36 860.238L1055.07 865L1054.96 865.022L1055.01 865.906L1054.96 866.79L1055.07 866.812L1055.36 871.574C1055.37 871.574 1055.72 871.562 1056.4 871.538C1057.1 871.514 1058 871.479 1059.1 871.431C1060.18 871.407 1061.34 871.37 1062.59 871.322C1063.82 871.274 1064.99 871.238 1066.12 871.214C1067.25 871.19 1068.17 871.179 1068.89 871.179C1069.61 871.179 1070.54 871.19 1071.66 871.214C1072.79 871.238 1073.98 871.262 1075.23 871.286C1076.48 871.334 1077.65 871.383 1078.76 871.431C1079.88 871.479 1080.8 871.514 1081.49 871.538C1082.19 871.562 1082.54 871.574 1082.54 871.574L1082.81 866.94L1082.93 866.862L1082.87 865.906L1082.93 864.95L1082.81 864.871L1082.54 860.238C1082.54 860.238 1082.19 860.25 1081.49 860.274ZM1081.41 865.906L1080.74 869.126H1057.16L1056.49 865.906L1057.16 862.687H1080.74L1081.41 865.906ZM1061.49 846.274C1060.8 846.298 1059.88 846.334 1058.76 846.382C1057.65 846.43 1056.48 846.478 1055.23 846.526C1053.98 846.55 1052.79 846.575 1051.66 846.599C1050.54 846.623 1049.61 846.634 1048.89 846.634C1048.17 846.634 1047.25 846.623 1046.12 846.599C1044.99 846.575 1043.82 846.538 1042.59 846.49C1041.34 846.442 1040.18 846.406 1039.1 846.382C1038 846.334 1037.1 846.298 1036.4 846.274C1035.72 846.251 1035.37 846.239 1035.36 846.238L1035.01 852.013L1034.96 852.022L1034.98 852.406L1034.96 852.79L1035.01 852.799L1035.36 858.574C1035.37 858.574 1035.72 858.562 1036.4 858.538C1037.1 858.514 1038 858.479 1039.1 858.431C1040.18 858.407 1041.34 858.37 1042.59 858.322C1043.82 858.274 1044.99 858.238 1046.12 858.214C1047.25 858.19 1048.17 858.179 1048.89 858.179C1049.61 858.179 1050.54 858.19 1051.66 858.214C1052.79 858.238 1053.98 858.262 1055.23 858.286C1056.48 858.334 1057.65 858.383 1058.76 858.431C1059.88 858.479 1060.8 858.514 1061.49 858.538C1062.19 858.562 1062.54 858.574 1062.54 858.574L1062.87 852.899L1062.93 852.862L1062.9 852.406L1062.93 851.95L1062.87 851.912L1062.54 846.238C1062.54 846.238 1062.19 846.25 1061.49 846.274ZM1061.52 852.406L1060.74 856.126H1037.16L1036.39 852.406L1037.16 848.687H1060.74L1061.52 852.406ZM840.6 841.274C839.904 841.298 839.004 841.334 837.9 841.382C836.82 841.406 835.656 841.442 834.408 841.49C833.184 841.538 832.008 841.575 830.88 841.599C829.752 841.623 828.828 841.634 828.108 841.634C827.388 841.634 826.464 841.623 825.336 841.599C824.208 841.575 823.02 841.55 821.772 841.526C820.525 841.478 819.348 841.43 818.244 841.382C817.116 841.334 816.204 841.298 815.508 841.274C814.812 841.25 814.464 841.238 814.464 841.238L814.068 847.862L814.134 847.906L814.068 847.95L814.464 854.574C814.464 854.574 814.812 854.562 815.508 854.538C816.204 854.514 817.116 854.479 818.244 854.431C819.348 854.383 820.525 854.334 821.772 854.286C823.02 854.262 824.208 854.238 825.336 854.214C826.464 854.19 827.388 854.179 828.108 854.179C828.828 854.179 829.752 854.19 830.88 854.214C832.008 854.238 833.184 854.274 834.408 854.322C835.656 854.37 836.82 854.407 837.9 854.431C839.004 854.479 839.904 854.514 840.6 854.538C841.281 854.562 841.629 854.574 841.644 854.574L842.04 848.022L841.458 847.906L842.04 847.79L841.644 841.238C841.629 841.239 841.281 841.251 840.6 841.274ZM840.708 847.862L840.784 847.906L840.708 847.95L839.844 852.126H816.264L815.4 848.022L814.799 847.906L815.4 847.79L816.264 843.687H839.844L840.708 847.862ZM1357.6 834.274C1356.9 834.298 1356 834.334 1354.9 834.382C1353.82 834.406 1352.66 834.442 1351.41 834.49C1350.18 834.538 1349.01 834.575 1347.88 834.599C1346.75 834.623 1345.83 834.634 1345.11 834.634C1344.39 834.634 1343.46 834.623 1342.34 834.599C1341.21 834.575 1340.02 834.55 1338.77 834.526C1337.52 834.478 1336.35 834.43 1335.24 834.382C1334.12 834.334 1333.2 834.298 1332.51 834.274C1331.81 834.25 1331.46 834.238 1331.46 834.238L1331.07 840.862L1331.13 840.906L1331.07 840.95L1331.46 847.574C1331.46 847.574 1331.81 847.562 1332.51 847.538C1333.2 847.514 1334.12 847.479 1335.24 847.431C1336.35 847.383 1337.52 847.334 1338.77 847.286C1340.02 847.262 1341.21 847.238 1342.34 847.214C1343.46 847.19 1344.39 847.179 1345.11 847.179C1345.83 847.179 1346.75 847.19 1347.88 847.214C1349.01 847.238 1350.18 847.274 1351.41 847.322C1352.66 847.37 1353.82 847.407 1354.9 847.431C1356 847.479 1356.9 847.514 1357.6 847.538C1358.28 847.562 1358.63 847.574 1358.64 847.574L1359.04 841.022L1358.46 840.906L1359.04 840.79L1358.64 834.238C1358.63 834.239 1358.28 834.251 1357.6 834.274ZM1357.71 840.862L1357.78 840.906L1357.71 840.95L1356.84 845.126H1333.26L1332.4 841.022L1331.8 840.906L1332.4 840.79L1333.26 836.687H1356.84L1357.71 840.862ZM1344.6 818.274C1343.9 818.298 1343 818.334 1341.9 818.382C1340.82 818.406 1339.66 818.442 1338.41 818.49C1337.18 818.538 1336.01 818.575 1334.88 818.599C1333.75 818.623 1332.83 818.634 1332.11 818.634C1331.39 818.634 1330.46 818.623 1329.34 818.599C1328.21 818.575 1327.02 818.55 1325.77 818.526C1324.52 818.478 1323.35 818.43 1322.24 818.382C1321.12 818.334 1320.2 818.298 1319.51 818.274C1318.81 818.25 1318.46 818.238 1318.46 818.238L1318.07 824.862L1318.13 824.906L1318.07 824.95L1318.46 831.574C1318.46 831.574 1318.81 831.562 1319.51 831.538C1320.2 831.514 1321.12 831.479 1322.24 831.431C1323.35 831.383 1324.52 831.334 1325.77 831.286C1327.02 831.262 1328.21 831.238 1329.34 831.214C1330.46 831.19 1331.39 831.179 1332.11 831.179C1332.83 831.179 1333.75 831.19 1334.88 831.214C1336.01 831.238 1337.18 831.274 1338.41 831.322C1339.66 831.37 1340.82 831.407 1341.9 831.431C1343 831.479 1343.9 831.514 1344.6 831.538C1345.28 831.562 1345.63 831.574 1345.64 831.574L1346.04 825.022L1345.46 824.906L1346.04 824.79L1345.64 818.238C1345.63 818.239 1345.28 818.251 1344.6 818.274ZM1344.71 824.862L1344.78 824.906L1344.71 824.95L1343.84 829.126H1320.26L1319.4 825.022L1318.8 824.906L1319.4 824.79L1320.26 820.687H1343.84L1344.71 824.862ZM926.6 814.274C925.904 814.298 925.004 814.334 923.9 814.382C922.82 814.406 921.656 814.442 920.408 814.49C919.184 814.538 918.008 814.575 916.88 814.599C915.752 814.623 914.828 814.634 914.108 814.634C913.388 814.634 912.464 814.623 911.336 814.599C910.208 814.575 909.02 814.55 907.772 814.526C906.525 814.478 905.348 814.43 904.244 814.382C903.116 814.334 902.204 814.298 901.508 814.274C900.812 814.25 900.464 814.238 900.464 814.238L900.068 820.862L900.134 820.906L900.068 820.95L900.464 827.574C900.464 827.574 900.812 827.562 901.508 827.538C902.204 827.514 903.116 827.479 904.244 827.431C905.348 827.383 906.525 827.334 907.772 827.286C909.02 827.262 910.208 827.238 911.336 827.214C912.464 827.19 913.388 827.179 914.108 827.179C914.828 827.179 915.752 827.19 916.88 827.214C918.008 827.238 919.184 827.274 920.408 827.322C921.656 827.37 922.82 827.407 923.9 827.431C925.004 827.479 925.904 827.514 926.6 827.538C927.281 827.562 927.629 827.574 927.644 827.574L928.04 821.022L927.458 820.906L928.04 820.79L927.644 814.238C927.629 814.239 927.281 814.251 926.6 814.274ZM926.708 820.862L926.784 820.906L926.708 820.95L925.844 825.126H902.264L901.4 821.022L900.799 820.906L901.4 820.79L902.264 816.687H925.844L926.708 820.862Z" fill="black"/>
</svg>
