<svg width="372" height="204" viewBox="0 0 372 204" fill="none" xmlns="http://www.w3.org/2000/svg">
<path d="M371.748 3.24414L332.073 45.2617C326.846 58.3192 324.793 65.8474 322.598 79.7998L322.337 81.46L320.657 81.4893C312.329 81.635 306.637 82.9174 301.781 85.6436C296.997 88.3297 292.838 92.5189 287.751 98.8848L283.717 134.373L281.895 134.336C261.446 133.915 249.301 138.103 241.417 147.904C233.365 157.914 229.4 174.155 226.546 198.899L226.024 203.414L223.048 199.981C211.987 187.225 203.189 179.173 192.644 176.448C182.158 173.739 169.456 176.191 150.324 185.844L148.752 186.638L147.766 185.178C140.169 173.932 133.879 166.895 125.439 164.084C116.998 161.272 105.904 162.532 88.3027 169.353L86.4561 170.068L85.7217 168.229C84.0425 164.014 81.8452 160.522 78.6846 157.54C75.5132 154.548 71.287 151.986 65.4443 149.758C53.6903 145.275 35.7207 142.249 7.45801 139.577L0 138.872L6.81738 135.766L111.935 87.8691L113.121 87.3271L114.094 88.1953C124.956 97.8772 138.681 107.18 150.134 113.787C155.86 117.09 160.974 119.694 164.841 121.328C166.782 122.149 168.351 122.7 169.496 122.981C170.072 123.123 170.474 123.179 170.727 123.188C170.737 123.188 170.747 123.186 170.757 123.187C171.055 122.926 171.407 122.421 171.729 121.543C172.097 120.542 172.335 119.309 172.478 118.051C172.619 116.807 172.66 115.614 172.664 114.727C172.666 114.285 172.659 113.925 172.651 113.678C172.648 113.555 172.643 113.46 172.641 113.397C172.639 113.367 172.638 113.343 172.638 113.329C172.637 113.322 172.637 113.317 172.637 113.314V113.313L172.634 113.255V113.194L172.676 98.4551L172.691 92.9756L176.208 97.1758C176.208 97.1763 176.209 97.1776 176.21 97.1787C176.213 97.1818 176.218 97.1878 176.225 97.1953C176.237 97.2104 176.258 97.2341 176.285 97.2656C176.34 97.3292 176.422 97.4248 176.529 97.5459C176.744 97.7888 177.056 98.1349 177.439 98.5381C178.213 99.3517 179.248 100.37 180.339 101.25C181.473 102.165 182.485 102.78 183.224 102.992C183.532 103.081 183.677 103.064 183.71 103.058C183.714 103.054 183.72 103.048 183.728 103.04C183.742 103.024 183.765 102.996 183.793 102.952C185.499 100.271 187.562 97.2125 190.601 94.9873C193.722 92.7016 197.734 91.3873 203.155 91.8799C203.193 91.8833 203.203 91.8826 203.248 91.8545C203.324 91.8069 203.477 91.6773 203.674 91.3779C204.082 90.7564 204.443 89.773 204.724 88.5898C204.996 87.4425 205.159 86.2626 205.254 85.3545C205.301 84.9043 205.33 84.5289 205.348 84.2695C205.356 84.1406 205.363 84.0405 205.366 83.9746C205.368 83.9418 205.368 83.9165 205.369 83.9014C205.369 83.8942 205.37 83.8886 205.37 83.8857V83.8838C205.37 83.8836 205.371 83.8837 205.373 83.8838L209.16 83.0713C209.161 83.0721 209.161 83.0746 209.162 83.0771C209.165 83.0823 209.169 83.0909 209.175 83.1025C209.187 83.1267 209.207 83.1654 209.232 83.2158C209.284 83.3168 209.364 83.4687 209.469 83.666C209.679 84.0615 209.993 84.6384 210.402 85.3496C211.221 86.7737 212.415 88.7298 213.91 90.8486C216.94 95.1409 221.053 99.8765 225.641 102.389C225.644 102.389 225.649 102.39 225.656 102.39C225.698 102.389 225.821 102.377 226.042 102.282C226.512 102.081 227.186 101.612 228.058 100.749C229.787 99.0356 231.857 96.2077 234.156 92.502C238.732 85.1274 243.942 74.7294 248.874 64.0859C253.798 53.4593 258.414 42.655 261.8 34.5029C263.492 30.4281 264.876 27.0179 265.837 24.6279C266.317 23.4331 266.693 22.4931 266.947 21.8525C267.074 21.5327 267.17 21.2871 267.235 21.1221C267.268 21.0395 267.293 20.9762 267.31 20.9346C267.318 20.9143 267.324 20.8989 267.328 20.8887L267.333 20.874C267.334 20.8739 267.38 20.8916 269.195 21.6035L267.333 20.873L267.832 19.6025L269.196 19.6035H269.26C269.302 19.6035 269.365 19.6027 269.448 19.6025C269.615 19.6022 269.864 19.6013 270.185 19.5996C270.827 19.5963 271.762 19.5893 272.93 19.5752C275.264 19.547 278.527 19.4896 282.235 19.374C289.672 19.1422 298.835 18.678 305.913 17.752C318.556 16.0978 334.447 11.6781 347.252 7.6377C353.638 5.62264 359.226 3.71069 363.218 2.30371C365.213 1.60038 366.809 1.02287 367.904 0.62207C368.452 0.421827 368.874 0.266061 369.159 0.160156C369.301 0.107344 369.409 0.0670337 369.481 0.0400391C369.517 0.026665 369.545 0.0164832 369.562 0.00976562C369.571 0.00640728 369.579 0.00357847 369.583 0.00195312C369.585 0.00128142 369.586 0.000503433 369.587 0H369.589L371.748 3.24414ZM192.575 108.705C192.094 108.631 191.609 108.7 191.122 108.914C190.567 109.158 190.126 109.525 189.801 110.015C189.472 110.495 189.284 111.042 189.236 111.653C189.194 112.253 189.308 112.86 189.578 113.476C189.822 114.031 190.142 114.482 190.538 114.828C190.939 115.162 191.381 115.365 191.862 115.439C192.343 115.514 192.827 115.443 193.314 115.229C193.878 114.982 194.321 114.62 194.642 114.143C194.967 113.653 195.149 113.104 195.188 112.496C195.235 111.884 195.125 111.275 194.858 110.668C194.611 110.104 194.287 109.656 193.886 109.322C193.493 108.985 193.056 108.779 192.575 108.705ZM191.042 109.775C191.401 109.618 191.766 109.59 192.137 109.692C192.508 109.795 192.856 110.008 193.183 110.334C193.509 110.659 193.785 111.078 194.01 111.591C194.302 112.257 194.394 112.849 194.285 113.366C194.172 113.875 193.876 114.234 193.397 114.444C193.039 114.602 192.675 114.634 192.308 114.54C191.937 114.438 191.59 114.228 191.268 113.911C190.941 113.586 190.665 113.167 190.44 112.654C190.144 111.979 190.051 111.383 190.16 110.866C190.27 110.349 190.563 109.985 191.042 109.775ZM209.376 102.563C208.895 102.489 208.41 102.559 207.923 102.772C207.368 103.016 206.927 103.383 206.602 103.872C206.272 104.353 206.084 104.9 206.037 105.512C205.995 106.111 206.109 106.719 206.379 107.334C206.623 107.889 206.942 108.341 207.339 108.687C207.74 109.02 208.182 109.224 208.663 109.298C209.144 109.372 209.628 109.302 210.115 109.088C210.679 108.84 211.122 108.478 211.442 108.001C211.768 107.512 211.95 106.963 211.988 106.354C212.036 105.743 211.926 105.133 211.659 104.526C211.412 103.963 211.088 103.514 210.687 103.181C210.294 102.844 209.857 102.638 209.376 102.563ZM207.843 103.634C208.202 103.476 208.567 103.449 208.938 103.551C209.308 103.653 209.657 103.867 209.983 104.192C210.31 104.518 210.585 104.937 210.811 105.449C211.103 106.116 211.195 106.708 211.086 107.225C210.973 107.733 210.677 108.093 210.198 108.303C209.839 108.46 209.476 108.492 209.108 108.398C208.738 108.296 208.391 108.086 208.068 107.77C207.742 107.444 207.466 107.025 207.241 106.513C206.945 105.838 206.852 105.241 206.961 104.725C207.07 104.208 207.364 103.844 207.843 103.634Z" fill="black"/>
</svg>
