<svg width="272" height="251" viewBox="0 0 272 251" fill="none" xmlns="http://www.w3.org/2000/svg">
<path d="M2.76953 0C46.1529 27.0171 68.3383 55.1781 104.484 124.271L105.157 125.558L104.142 126.597C89.5514 141.503 81.0322 152.468 77.6768 162.452C74.5916 171.633 75.8108 180.207 81.3584 190.712L93.5117 181.598L96.3135 179.496L96.6992 182.976L96.7002 182.978C96.7005 182.98 96.7005 182.984 96.7012 182.99C96.7027 183.003 96.7054 183.025 96.709 183.054C96.7161 183.112 96.7274 183.2 96.7432 183.315C96.7747 183.546 96.8246 183.88 96.8945 184.289C97.0353 185.111 97.2553 186.211 97.5742 187.342C97.8969 188.486 98.2998 189.587 98.7803 190.452C99.2786 191.349 99.717 191.732 99.9883 191.854C100.021 191.857 100.328 191.89 101.09 191.399C101.918 190.866 102.854 189.976 103.777 188.934C104.683 187.911 105.497 186.831 106.09 185.998C106.385 185.584 106.621 185.236 106.782 184.994C106.863 184.873 106.924 184.779 106.965 184.717C106.985 184.686 107 184.662 107.01 184.647C107.014 184.64 107.018 184.635 107.02 184.632C107.02 184.631 107.02 184.629 107.021 184.629L110.272 179.48L110.707 185.555L111.515 196.867C122.87 192.342 129.386 187.004 133.021 179.495C136.985 171.304 137.711 160.184 136.716 143.818L136.594 141.808L138.605 141.7C150.501 141.066 159.382 139.921 167.627 137.268C175.854 134.62 183.563 130.434 193.04 123.577C198.027 119.969 205.316 116.383 213.328 113.046C221.371 109.696 230.263 106.549 238.529 103.845C246.8 101.139 254.466 98.8694 260.063 97.2764C262.863 96.4797 265.147 95.8519 266.731 95.4229C267.524 95.2083 268.142 95.043 268.562 94.9316C268.773 94.876 268.933 94.8332 269.042 94.8047C269.096 94.7904 269.138 94.7797 269.166 94.7725C269.18 94.7688 269.191 94.7665 269.198 94.7646C269.202 94.7638 269.204 94.7632 269.206 94.7627L269.208 94.7617C269.209 94.7616 269.209 94.7615 269.712 96.6973L269.209 94.7617L271.043 98.1904C255.712 111.858 245.224 123.094 237.394 135.561C229.571 148.016 224.332 161.809 219.653 180.679L219.282 182.174L217.742 182.197C194.965 182.538 180.09 185.658 169.188 192.991C158.312 200.306 151.066 212.034 144.081 230.408L143.516 231.896L141.938 231.679C132.819 230.42 126.018 229.235 119.303 229.663C112.715 230.083 106.159 232.072 97.7832 237.386C88.8632 243.045 75.4751 247.154 65.0713 249.021C59.8837 249.953 55.2348 250.365 52.1484 250.061C51.3644 249.983 50.6189 249.855 49.9609 249.648C49.3285 249.45 48.6167 249.132 48.0566 248.574C47.425 247.945 47.0609 247.076 47.1689 246.094C47.2641 245.229 47.7014 244.501 48.1582 243.938C52.4928 238.593 54.0719 221.699 29.5127 203.298L27.5576 201.833L29.3799 200.206C42.9464 188.086 49.8859 178.183 49.2627 166.104C48.6273 153.791 40.1373 138.592 20.6963 116.002L19.9561 115.142L20.3145 114.065C27.1675 93.488 28.986 77.2151 25.7236 60.4062C22.4471 43.5244 14.0136 25.9214 0 2.73145L2.76953 0ZM100.939 201.532C100.44 201.545 99.9661 201.689 99.5176 201.964C99.0799 202.236 98.7152 202.62 98.4238 203.117C98.1608 203.566 98.0086 204.015 97.9678 204.464C97.9379 204.91 98.0177 205.319 98.208 205.69C98.3983 206.062 98.6907 206.362 99.084 206.593C99.5394 206.86 100.013 206.985 100.506 206.968C101.009 206.948 101.482 206.798 101.924 206.52C102.372 206.245 102.74 205.862 103.027 205.372C103.294 204.917 103.443 204.466 103.473 204.02C103.509 203.577 103.432 203.171 103.242 202.8C103.052 202.429 102.761 202.127 102.367 201.896C101.919 201.633 101.443 201.512 100.939 201.532ZM100.528 202.209C100.942 202.025 101.342 202.047 101.729 202.273C102.018 202.443 102.221 202.683 102.337 202.992C102.452 203.301 102.479 203.651 102.417 204.041C102.355 204.431 102.203 204.833 101.96 205.247C101.644 205.785 101.279 206.146 100.865 206.33C100.455 206.507 100.057 206.482 99.6709 206.256C99.3812 206.086 99.1762 205.85 99.0566 205.548C98.9411 205.239 98.9129 204.893 98.9707 204.51C99.0327 204.119 99.1849 203.717 99.4277 203.303C99.7475 202.758 100.114 202.393 100.528 202.209ZM89.9395 197.532C89.4403 197.545 88.9661 197.689 88.5176 197.964C88.0799 198.236 87.7152 198.62 87.4238 199.117C87.1608 199.566 87.0086 200.015 86.9678 200.464C86.9379 200.91 87.0177 201.319 87.208 201.69C87.3983 202.062 87.6907 202.362 88.084 202.593C88.5394 202.86 89.0135 202.985 89.5059 202.968C90.0091 202.948 90.4821 202.798 90.9238 202.52C91.3724 202.245 91.7401 201.862 92.0273 201.372C92.2944 200.917 92.4428 200.466 92.4727 200.02C92.5093 199.577 92.4324 199.171 92.2422 198.8C92.0519 198.429 91.7605 198.127 91.3672 197.896C90.9187 197.633 90.4427 197.512 89.9395 197.532ZM89.5283 198.209C89.9421 198.025 90.3422 198.047 90.7285 198.273C91.0183 198.443 91.2213 198.683 91.3369 198.992C91.4524 199.301 91.4789 199.651 91.417 200.041C91.355 200.431 91.2027 200.833 90.96 201.247C90.6443 201.785 90.2791 202.146 89.8652 202.33C89.4555 202.507 89.0573 202.482 88.6709 202.256C88.3812 202.086 88.1762 201.85 88.0566 201.548C87.9411 201.239 87.9129 200.893 87.9707 200.51C88.0327 200.119 88.1849 199.717 88.4277 199.303C88.7475 198.758 89.1144 198.393 89.5283 198.209Z" fill="black"/>
</svg>
